<?xml version="1.0" encoding="UTF-8" standalone="no"?>
<!-- Created with Inkscape (http://www.inkscape.org/) -->

<svg
   version="1.1"
   id="svg2"
   xml:space="preserve"
   width="1600"
   height="1600"
   viewBox="0 0 1600 1600"
   sodipodi:docname="22676226_81_aGVhbHRoeV9saWZlc3R5bGUtMDU.eps"
   xmlns:inkscape="http://www.inkscape.org/namespaces/inkscape"
   xmlns:sodipodi="http://sodipodi.sourceforge.net/DTD/sodipodi-0.dtd"
   xmlns="http://www.w3.org/2000/svg"
   xmlns:svg="http://www.w3.org/2000/svg"><defs
     id="defs6"><clipPath
       clipPathUnits="userSpaceOnUse"
       id="clipPath26"><path
         d="M 10277.2,3736.91 5898.62,6308.67 c -1.29,11.7 -2.7,23.78 -4.24,36.19 -28.46,227.48 -81.07,396.42 -162.65,629.63 43.11,108.8 83.87,251.2 96.48,420.81 5.97,80.93 4.66,156.84 -1.3,226.72 507.67,-268.59 995.86,-572.76 1476.83,-886.33 522.68,-340.76 1057.16,-647.5 1576.45,-997.16 410.93,-276.71 827.04,-572.23 1094.97,-988.95 0.35,-0.53 0.7,-1.07 1.04,-1.61 0.06,-0.09 0.1,-0.15 0.16,-0.24 0.32,-0.52 0.66,-1.03 0.98,-1.55 0.06,-0.09 0.12,-0.18 0.18,-0.27 0.34,-0.53 0.68,-1.07 1.02,-1.6 0.01,-0.02 0.02,-0.03 0.03,-0.05 0.35,-0.55 0.72,-1.13 1.07,-1.68 0.01,-0.02 0.04,-0.05 0.05,-0.07 0.36,-0.57 0.69,-1.09 1.05,-1.66 0.03,-0.04 0.08,-0.12 0.1,-0.16 0.35,-0.55 0.71,-1.11 1.06,-1.66 0.02,-0.04 0.03,-0.04 0.05,-0.08 0.72,-1.14 1.45,-2.29 2.17,-3.43 0.02,-0.04 0.03,-0.05 0.05,-0.09 0.36,-0.57 0.73,-1.16 1.09,-1.73 v -0.01 c 186.54,-296.92 286.34,-646.32 291.94,-996.78 M 9002.81,5086.25 c -227.27,0 -411.19,-87.35 -411.81,-196.23 -0.65,-109.72 185.02,-199.74 414.68,-201.08 1.73,-0.01 3.43,-0.01 5.17,-0.01 227.26,0 411.19,87.36 411.81,196.25 0.65,109.7 -185.01,199.72 -414.67,201.06 -1.74,0.01 -3.45,0.01 -5.18,0.01 m -544.85,307.3 c -203.93,0 -368.95,-78.4 -369.52,-176.09 -0.57,-98.45 166.01,-179.22 372.09,-180.42 1.56,-0.01 3.09,-0.01 4.65,-0.01 203.92,0 368.95,78.38 369.52,176.09 0.57,98.43 -166.02,179.21 -372.09,180.42 -1.56,0 -3.09,0.01 -4.65,0.01 M 5341.33,6636 2348.71,8393.7 l -1.19,0.7 c 36.72,13.06 73.65,24.93 110.93,35.72 65.73,19.02 132.41,34.62 199.67,47 141.45,26.03 286.14,37.92 432.44,37.92 671.53,0 1379.97,-249.97 1997.11,-529.72 l -157.43,-1.99 c -8.23,7.27 -14.64,13.76 -19.18,19.06 -27.08,-75.64 -57.03,-185.85 -56.98,-317.05 v 0 c 0.01,-25.02 1.11,-50.8 3.53,-77.25 21.07,-228.19 128.6,-382.26 217.84,-520.37 28.06,-43.71 58.44,-91.87 90.89,-145.11 53.63,-88.36 112.49,-190.31 174.99,-306.61 m 379.18,370.46 c -2.82,8.02 -5.67,16.1 -8.56,24.28 2.92,-8.2 5.76,-16.28 8.56,-24.28"
         id="path24" /></clipPath><linearGradient
       x1="0"
       y1="0"
       x2="1"
       y2="0"
       gradientUnits="userSpaceOnUse"
       gradientTransform="matrix(7956.47,-46.1475,-46.1475,-7956.47,2334.51,6151.22)"
       spreadMethod="pad"
       id="linearGradient32"><stop
         style="stop-opacity:1;stop-color:#eed2dc"
         offset="0"
         id="stop28" /><stop
         style="stop-opacity:1;stop-color:#dfdae6"
         offset="1"
         id="stop30" /></linearGradient><clipPath
       clipPathUnits="userSpaceOnUse"
       id="clipPath42"><path
         d="m 9010.85,4688.93 c -1.74,0 -3.44,0 -5.17,0.01 -229.66,1.34 -415.33,91.36 -414.68,201.08 0.62,108.88 184.54,196.23 411.81,196.23 1.73,0 3.44,0 5.18,-0.01 229.66,-1.34 415.32,-91.36 414.67,-201.06 -0.62,-108.89 -184.55,-196.25 -411.81,-196.25"
         id="path40" /></clipPath><linearGradient
       x1="0"
       y1="0"
       x2="1"
       y2="0"
       gradientUnits="userSpaceOnUse"
       gradientTransform="matrix(7956.47,-46.1475,-46.1475,-7956.47,2334.51,6151.22)"
       spreadMethod="pad"
       id="linearGradient48"><stop
         style="stop-opacity:1;stop-color:#b6c2db"
         offset="0"
         id="stop44" /><stop
         style="stop-opacity:1;stop-color:#afc6df"
         offset="1"
         id="stop46" /></linearGradient><clipPath
       clipPathUnits="userSpaceOnUse"
       id="clipPath58"><path
         d="m 8465.18,5037.03 c -1.56,0 -3.09,0 -4.65,0.01 -206.08,1.2 -372.66,81.97 -372.09,180.42 0.57,97.69 165.59,176.09 369.52,176.09 1.56,0 3.09,-0.01 4.65,-0.01 206.07,-1.21 372.66,-81.99 372.09,-180.42 -0.57,-97.71 -165.6,-176.09 -369.52,-176.09"
         id="path56" /></clipPath><linearGradient
       x1="0"
       y1="0"
       x2="1"
       y2="0"
       gradientUnits="userSpaceOnUse"
       gradientTransform="matrix(7956.47,-46.1475,-46.1475,-7956.47,2334.51,6151.22)"
       spreadMethod="pad"
       id="linearGradient64"><stop
         style="stop-opacity:1;stop-color:#b6c2db"
         offset="0"
         id="stop60" /><stop
         style="stop-opacity:1;stop-color:#afc6df"
         offset="1"
         id="stop62" /></linearGradient><clipPath
       clipPathUnits="userSpaceOnUse"
       id="clipPath78"><path
         d="m 7201.26,7215.78 c 7.75,164.69 42.03,325.23 106.01,467.94 273.29,609.56 1060.55,283.7 1487.4,49.17 561.93,-308.74 1020.36,-807.58 1268.03,-1400.13 107.5,-257.22 184.2,-579.76 62.1,-845.93 -103.3,-225.45 -318.71,-375.76 -546.29,-398.41 -427.15,-42.53 -880.01,199.85 -1236.78,423.12 -341.25,213.56 -688.85,455.12 -909.95,799.52 -160.96,250.73 -245.55,585.51 -230.52,904.72 z"
         id="path76" /></clipPath><linearGradient
       x1="0"
       y1="0"
       x2="1"
       y2="0"
       gradientUnits="userSpaceOnUse"
       gradientTransform="matrix(-1559.7,-1068.89,-1068.89,1559.7,9548.23,7151.71)"
       spreadMethod="pad"
       id="linearGradient84"><stop
         style="stop-opacity:1;stop-color:#f0bbbd"
         offset="0"
         id="stop80" /><stop
         style="stop-opacity:1;stop-color:#eab3b2"
         offset="1"
         id="stop82" /></linearGradient><clipPath
       clipPathUnits="userSpaceOnUse"
       id="clipPath96"><path
         d="m 10359.3,9169.58 c -2.4,-409.79 -240.3,-740.62 -531.49,-738.93 -291.14,1.7 -525.21,335.28 -522.83,745.07 2.39,409.79 240.34,740.62 531.48,738.93 291.14,-1.7 525.24,-335.28 522.84,-745.07 z"
         id="path94" /></clipPath><linearGradient
       x1="0"
       y1="0"
       x2="1"
       y2="0"
       gradientUnits="userSpaceOnUse"
       gradientTransform="matrix(-2052.49,-389.687,-389.687,2052.49,10419.3,9284.12)"
       spreadMethod="pad"
       id="linearGradient102"><stop
         style="stop-opacity:1;stop-color:#63a5db"
         offset="0"
         id="stop98" /><stop
         style="stop-opacity:1;stop-color:#568dc3"
         offset="1"
         id="stop100" /></linearGradient><clipPath
       clipPathUnits="userSpaceOnUse"
       id="clipPath114"><path
         d="m 9427.46,10535.7 c 92.02,-66.4 160.05,-164.2 205.53,-268.5 172.06,-394.6 178.2,-829.77 194.5,-1252.31 23.02,-596.44 252.71,-1752.75 -504.43,-2024.33 -847.15,-303.85 -1173.37,855.28 -1203.22,1450.02 -18.42,367.32 24.83,732.73 73.28,1096.21 38.35,287.84 83.27,598.51 285.5,825.21 104.52,117.2 250.68,192.4 402.8,234.4 162.67,44.9 344.91,52.2 493.33,-27.6 18.38,-9.9 35.94,-20.9 52.71,-33.1 z"
         id="path112" /></clipPath><linearGradient
       x1="0"
       y1="0"
       x2="1"
       y2="0"
       gradientUnits="userSpaceOnUse"
       gradientTransform="matrix(-1219.97,-2429.8,-2429.8,1219.97,9640.28,9954.16)"
       spreadMethod="pad"
       id="linearGradient124"><stop
         style="stop-opacity:1;stop-color:#8fbadd"
         offset="0"
         id="stop116" /><stop
         style="stop-opacity:1;stop-color:#6a9ccc"
         offset="0.768091"
         id="stop118" /><stop
         style="stop-opacity:1;stop-color:#568dc3"
         offset="0.991892"
         id="stop120" /><stop
         style="stop-opacity:1;stop-color:#568dc3"
         offset="1"
         id="stop122" /></linearGradient><clipPath
       clipPathUnits="userSpaceOnUse"
       id="clipPath148"><path
         d="m 8813.88,8528.56 c -2.36,-404.38 -262.52,-730.69 -581.09,-728.83 -318.57,1.85 -574.91,331.17 -572.56,735.55 2.36,404.39 262.52,730.71 581.09,728.85 318.57,-1.85 574.91,-331.18 572.56,-735.57 z"
         id="path146" /></clipPath><linearGradient
       x1="0"
       y1="0"
       x2="1"
       y2="0"
       gradientUnits="userSpaceOnUse"
       gradientTransform="matrix(-24.8795,-1859.85,-1859.85,24.8795,8250.52,9538.41)"
       spreadMethod="pad"
       id="linearGradient154"><stop
         style="stop-opacity:1;stop-color:#c8e8f7"
         offset="0"
         id="stop150" /><stop
         style="stop-opacity:1;stop-color:#6a9ccc"
         offset="1"
         id="stop152" /></linearGradient><clipPath
       clipPathUnits="userSpaceOnUse"
       id="clipPath176"><path
         d="m 5731.7,6974.41 c -3.71,10.59 -7.41,21.24 -11.19,32.05 v 0 c -2.8,8 -5.64,16.08 -8.56,24.28 v 0 0 c -94.61,268.14 -179.72,497.54 -248.62,679.5 v 0 0 c 4.64,24.61 4.07,53.52 1.29,82.62 187.12,61.88 254.44,200.44 254.44,200.44 l -0.79,-0.01 c 6.97,4.66 14.03,9.66 21.14,15.06 30,-79.53 69.39,-205.26 85.42,-364.02 0.74,-7.36 1.44,-14.8 2.08,-22.31 v 0 c 5.96,-69.88 7.27,-145.79 1.3,-226.72 -12.61,-169.61 -53.37,-312.01 -96.48,-420.81 v 0 c -0.01,-0.03 -0.02,-0.06 -0.03,-0.08"
         id="path174" /></clipPath><linearGradient
       x1="0"
       y1="0"
       x2="1"
       y2="0"
       gradientUnits="userSpaceOnUse"
       gradientTransform="matrix(147.839,587.438,587.438,-147.839,5579.54,7357.76)"
       spreadMethod="pad"
       id="linearGradient182"><stop
         style="stop-opacity:1;stop-color:#1c88b7"
         offset="0"
         id="stop178" /><stop
         style="stop-opacity:1;stop-color:#25a1df"
         offset="1"
         id="stop180" /></linearGradient><clipPath
       clipPathUnits="userSpaceOnUse"
       id="clipPath198"><path
         d="m 5057.73,9671.08 c -4.38,-99.31 24.79,-134.99 31.59,-201.81 2.6,-24.54 7.38,-52.67 3.65,-76.96 -21.04,-19.11 -35.91,-41.72 -61.36,-69.82 -80.5,-102.89 -155.24,-198.2 -224.23,-285.94 -135.69,-72.13 -319.97,-103.18 -466.75,-11.86 -95.2,59.1 -211.3,192.3 -180.67,335.85 16.08,74.94 74.94,165.69 157.08,187.41 69.22,18.41 113.16,-23.07 180.76,8.46 14.84,6.89 46.22,24.67 88.06,94.6 84.94,141.75 35.62,201.43 100.65,298.06 52.24,77.73 160.46,152.53 259.53,141.13 57.66,-6.6 86.01,-39.4 146.72,-29.3 33.86,5.7 61.85,21.8 83.52,39.8 8.48,-67.6 28.63,-127.58 54.75,-179.95 -30.48,-6.58 -72.2,-21.35 -107.49,-56.01 -58.68,-57.79 -63.35,-136.18 -65.81,-193.66 z"
         id="path196" /></clipPath><linearGradient
       x1="0"
       y1="0"
       x2="1"
       y2="0"
       gradientUnits="userSpaceOnUse"
       gradientTransform="matrix(495.2,652.35,652.35,-495.2,4494.11,9223.5)"
       spreadMethod="pad"
       id="linearGradient208"><stop
         style="stop-opacity:1;stop-color:#603838"
         offset="0"
         id="stop200" /><stop
         style="stop-opacity:1;stop-color:#603838"
         offset="0.37935"
         id="stop202" /><stop
         style="stop-opacity:1;stop-color:#492e2e"
         offset="0.822734"
         id="stop204" /><stop
         style="stop-opacity:1;stop-color:#492e2e"
         offset="1"
         id="stop206" /></linearGradient><clipPath
       clipPathUnits="userSpaceOnUse"
       id="clipPath232"><path
         d="m 6723.09,7171.02 c 11.76,26.45 200.42,433.54 593.57,481.93 472.9,58.19 776.89,-459.78 803.6,-506.89 139.9,-246.72 258.32,-701.69 -1.81,-1000.18 -212.98,-244.39 -547.92,-232.65 -611.91,-228.9 -444.66,26.06 -802.93,428.21 -849.56,826.72 -23.99,205.05 39.42,367.31 66.11,427.32 z"
         id="path230" /></clipPath><linearGradient
       x1="0"
       y1="0"
       x2="1"
       y2="0"
       gradientUnits="userSpaceOnUse"
       gradientTransform="matrix(-863.475,-678.397,-678.397,863.475,8127.08,7272.18)"
       spreadMethod="pad"
       id="linearGradient240"><stop
         style="stop-opacity:1;stop-color:#f2d4da"
         offset="0"
         id="stop234" /><stop
         style="stop-opacity:1;stop-color:#f2d4da"
         offset="0.147738"
         id="stop236" /><stop
         style="stop-opacity:1;stop-color:#f5c1c6"
         offset="1"
         id="stop238" /></linearGradient><clipPath
       clipPathUnits="userSpaceOnUse"
       id="clipPath250"><path
         d="m 10124.2,10582.1 c -0.8,-139.5 -79.2,-252 -175.1,-251.5 -95.92,0.6 -173.02,114.1 -172.21,253.5 0.82,139.4 79.23,252 175.15,251.4 95.96,-0.6 172.96,-114 172.16,-253.4 z"
         id="path248" /></clipPath><linearGradient
       x1="0"
       y1="0"
       x2="1"
       y2="0"
       gradientUnits="userSpaceOnUse"
       gradientTransform="matrix(61.9942,-1458.76,-1458.76,-61.9942,9944.34,10729.7)"
       spreadMethod="pad"
       id="linearGradient258"><stop
         style="stop-opacity:1;stop-color:#c8e8f7"
         offset="0"
         id="stop252" /><stop
         style="stop-opacity:1;stop-color:#6a9ccc"
         offset="0.55108564"
         id="stop254" /><stop
         style="stop-opacity:1;stop-color:#6a9ccc"
         offset="1"
         id="stop256" /></linearGradient><clipPath
       clipPathUnits="userSpaceOnUse"
       id="clipPath274"><path
         d="m 5262.51,7853.61 c -28.03,0 -56.8,2.76 -85.32,9.48 -13.69,3.22 -26.92,6.8 -39.68,10.65 -1.97,1.76 -4.59,2.8 -7.43,2.8 -0.17,0 -0.33,0 -0.5,-0.01 -0.27,-0.02 -0.54,-0.04 -0.81,-0.08 -95.34,30.26 -163.41,75.8 -198.53,106.88 l 157.43,1.99 c 89.82,-40.71 177.69,-82.05 263.24,-123.35 -27.75,-5.04 -57.64,-8.36 -88.4,-8.36"
         id="path272" /></clipPath><linearGradient
       x1="0"
       y1="0"
       x2="1"
       y2="0"
       gradientUnits="userSpaceOnUse"
       gradientTransform="matrix(7956.47,-46.1475,-46.1475,-7956.47,2334.51,6151.22)"
       spreadMethod="pad"
       id="linearGradient280"><stop
         style="stop-opacity:1;stop-color:#6ea5c5"
         offset="0"
         id="stop276" /><stop
         style="stop-opacity:1;stop-color:#68a8c9"
         offset="1"
         id="stop278" /></linearGradient><clipPath
       clipPathUnits="userSpaceOnUse"
       id="clipPath292"><path
         d="m 5464.62,7792.86 c -3.12,32.61 -9,65.45 -13.41,92.67 15.93,0.32 31.52,1.99 48.56,5.94 26.37,6.13 56.2,17.74 96.13,38.31 32.3,16.56 75.46,32.19 122.37,63.51 l 0.79,0.01 c 0,0 -67.32,-138.56 -254.44,-200.44"
         id="path290" /></clipPath><linearGradient
       x1="0"
       y1="0"
       x2="1"
       y2="0"
       gradientUnits="userSpaceOnUse"
       gradientTransform="matrix(147.839,587.438,587.438,-147.839,5579.54,7357.76)"
       spreadMethod="pad"
       id="linearGradient298"><stop
         style="stop-opacity:1;stop-color:#1c88b7"
         offset="0"
         id="stop294" /><stop
         style="stop-opacity:1;stop-color:#1f92c7"
         offset="1"
         id="stop296" /></linearGradient><clipPath
       clipPathUnits="userSpaceOnUse"
       id="clipPath334"><path
         d="m 5976.19,10339.6 c -8.2,-29.8 -26.2,-101.3 -90.13,-154 -27.39,-22.5 -66.41,-51.2 -114.16,-46.9 -8.66,0.9 -17.31,2.6 -25.54,5.8 l -1.68,0.7 c -22.78,10.1 -42.12,27.5 -54.25,49.8 42.74,44.1 83.88,103 109.48,179.4 24.31,72.8 27.45,140.8 22.07,196.9 24.58,-24.7 41.98,-51.4 54.31,-74.3 4.64,-1.9 88.34,-37.5 99.91,-119.8 2.03,-13.6 1.53,-26.2 -0.01,-37.6 z"
         id="path332" /></clipPath><linearGradient
       x1="0"
       y1="0"
       x2="1"
       y2="0"
       gradientUnits="userSpaceOnUse"
       gradientTransform="matrix(-320.794,-38.651,-38.651,320.794,6057.61,10385.2)"
       spreadMethod="pad"
       id="linearGradient346"><stop
         style="stop-opacity:1;stop-color:#6d4141"
         offset="0"
         id="stop336" /><stop
         style="stop-opacity:1;stop-color:#6d4141"
         offset="0.301489"
         id="stop338" /><stop
         style="stop-opacity:1;stop-color:#492e2e"
         offset="0.51162828"
         id="stop340" /><stop
         style="stop-opacity:1;stop-color:#492e2e"
         offset="0.593736"
         id="stop342" /><stop
         style="stop-opacity:1;stop-color:#492e2e"
         offset="1"
         id="stop344" /></linearGradient><clipPath
       clipPathUnits="userSpaceOnUse"
       id="clipPath356"><path
         d="m 5753.1,9954.04 c 11.53,-0.45 12.36,-64.1 16.61,-78.57 8.83,-30.12 28.22,-22.8 32.04,-42.12 3.4,-17.19 -17.36,-36.28 -44.15,-21.73 -37.24,20.23 -16.03,142.87 -4.5,142.42 z"
         id="path354" /></clipPath><linearGradient
       x1="0"
       y1="0"
       x2="1"
       y2="0"
       gradientUnits="userSpaceOnUse"
       gradientTransform="matrix(24.8836,-187.12,-187.12,-24.8836,5752.98,9969.7)"
       spreadMethod="pad"
       id="linearGradient364"><stop
         style="stop-opacity:1;stop-color:#ffba94"
         offset="0"
         id="stop358" /><stop
         style="stop-opacity:1;stop-color:#f18b59"
         offset="0.947082"
         id="stop360" /><stop
         style="stop-opacity:1;stop-color:#f18b59"
         offset="1"
         id="stop362" /></linearGradient><clipPath
       clipPathUnits="userSpaceOnUse"
       id="clipPath386"><path
         d="m 5819.6,10314.1 c -43.94,-67.5 -99,-154.5 -232.65,-220 -28.79,-14.1 -57.4,-28.7 -88.14,-38.2 -8.18,-2.5 -16.33,-6 -24.98,-6.4 -9.1,-0.4 -13.76,7.8 -19.34,13.8 -9.06,9.9 -22.1,16 -35.48,16.7 -36,1.7 -55.55,-31.1 -49.08,-63.8 3.17,-16 11.15,-30.6 20.29,-44.08 8.93,-13.16 21.54,-25.79 27.9,-40.33 4.28,-9.81 8.82,-19.61 12.82,-29.58 10.07,-25.08 17.85,-51.09 23.32,-77.54 7.48,-36.2 10.53,-73.37 8.27,-110.29 -0.94,-17.32 -3.15,-33.37 -6.19,-48.36 -68.84,47.53 -252.09,194.22 -280.68,439.38 -5.63,48.6 -25.56,219.1 85.81,362.2 116.92,150.2 351.19,235.3 506.01,146 21.28,-12.3 80.7,-42.5 108.81,-116.6 5.38,-56.1 -9.81,-110.8 -56.69,-182.9 z"
         id="path384" /></clipPath><linearGradient
       x1="0"
       y1="0"
       x2="1"
       y2="0"
       gradientUnits="userSpaceOnUse"
       gradientTransform="matrix(-486.766,-715.813,-715.813,486.766,5780.45,10687.4)"
       spreadMethod="pad"
       id="linearGradient398"><stop
         style="stop-opacity:1;stop-color:#6d4141"
         offset="0"
         id="stop388" /><stop
         style="stop-opacity:1;stop-color:#6d4141"
         offset="0.113988"
         id="stop390" /><stop
         style="stop-opacity:1;stop-color:#492e2e"
         offset="0.53111282"
         id="stop392" /><stop
         style="stop-opacity:1;stop-color:#492e2e"
         offset="0.694096"
         id="stop394" /><stop
         style="stop-opacity:1;stop-color:#492e2e"
         offset="1"
         id="stop396" /></linearGradient><clipPath
       clipPathUnits="userSpaceOnUse"
       id="clipPath412"><path
         d="m 4796.53,8188.68 c -29.41,47.05 -58.89,94.14 -85.13,143.06 -24.96,46.51 -50.45,79.18 -18.09,126.68 43.26,63.48 110.76,106.16 164.26,159.98 165.14,166.13 263.6,261.87 360.04,413.87 43.06,67.87 73.81,120.99 77.2,192.31 3.31,69.23 -15.93,195.23 -92.66,213.29 -55.63,13.1 -105.77,-27.41 -170.54,-115.38 -248.28,-317.54 -650.03,-765.64 -667.04,-888.84 -16.25,-117.7 128.18,-316.33 226.43,-428.76 0,0 -1.27,75.62 62.89,129.41 64.16,53.79 142.64,54.38 142.64,54.38 z"
         id="path410" /></clipPath><linearGradient
       x1="0"
       y1="0"
       x2="1"
       y2="0"
       gradientUnits="userSpaceOnUse"
       gradientTransform="matrix(-206.045,161.359,161.359,206.045,4910.48,8715.11)"
       spreadMethod="pad"
       id="linearGradient418"><stop
         style="stop-opacity:1;stop-color:#f75f4b"
         offset="0"
         id="stop414" /><stop
         style="stop-opacity:1;stop-color:#ff826a"
         offset="1"
         id="stop416" /></linearGradient><clipPath
       clipPathUnits="userSpaceOnUse"
       id="clipPath430"><path
         d="m 6227.92,8690.67 c -62.17,99.07 -132.65,187.02 -143.62,213.53 -14.89,35.92 -12.33,225.85 -45.55,364.27 -53.03,222.03 -173.81,420.46 -221.8,436.17 -47.99,15.71 147.19,-273.23 168.58,-483.45 11.19,-110.82 2.5,-188.13 -40.38,-256.57 -31.79,-50.75 -73.19,-82.22 -102.68,-100.44 -0.87,-4.42 -1.74,-8.87 -2.61,-13.29 62.18,-90.27 144.95,-193.85 220.5,-289.41 0,0 55.33,5.96 103.96,38.71 48.63,32.74 63.6,90.48 63.6,90.48 z"
         id="path428" /></clipPath><linearGradient
       x1="0"
       y1="0"
       x2="1"
       y2="0"
       gradientUnits="userSpaceOnUse"
       gradientTransform="matrix(-351.141,381.371,381.371,351.141,6394.8,8642.45)"
       spreadMethod="pad"
       id="linearGradient436"><stop
         style="stop-opacity:1;stop-color:#ff826a"
         offset="0"
         id="stop432" /><stop
         style="stop-opacity:1;stop-color:#f75f4b"
         offset="1"
         id="stop434" /></linearGradient><clipPath
       clipPathUnits="userSpaceOnUse"
       id="clipPath486"><path
         d="m 8378.88,2436.3 c -8.06,-25.19 -22.84,-51.64 -49.29,-69.92 -46.95,-32.38 -103.78,-20.63 -137.38,-13.62 -67.53,14.02 -83.78,44.65 -129.47,58.44 -39.09,11.75 -99.28,11 -190.97,-48.36 -16.88,26.34 -29.83,56.36 -36.63,90.55 -2.83,14.34 -4.84,30.57 -5.64,47.81 -2.62,65.52 13.47,145.04 72.33,191.48 97.8,77.14 269.18,27.87 347.31,-56.62 38.61,-41.69 33.24,-69.1 116.03,-181.25 4.76,-6.54 9.33,-12.67 13.71,-18.51 z"
         id="path484" /></clipPath><linearGradient
       x1="0"
       y1="0"
       x2="1"
       y2="0"
       gradientUnits="userSpaceOnUse"
       gradientTransform="matrix(550.08,-3.19047,-3.19047,-550.08,7829.38,2539.76)"
       spreadMethod="pad"
       id="linearGradient494"><stop
         style="stop-opacity:1;stop-color:#f75f4b"
         offset="0"
         id="stop488" /><stop
         style="stop-opacity:1;stop-color:#f75f4b"
         offset="0.148649"
         id="stop490" /><stop
         style="stop-opacity:1;stop-color:#ff826a"
         offset="1"
         id="stop492" /></linearGradient></defs><sodipodi:namedview
     id="namedview4"
     pagecolor="#ffffff"
     bordercolor="#666666"
     borderopacity="1.0"
     inkscape:pageshadow="2"
     inkscape:pageopacity="0.0"
     inkscape:pagecheckerboard="0" /><g
     id="g8"
     inkscape:groupmode="layer"
     inkscape:label="ink_ext_XXXXXX"
     transform="matrix(1.3333333,0,0,-1.3333333,0,1600)"><g
       id="g10"
       transform="scale(0.1)"><path
         d="M 0,0 H 12000 V 12000 H 0 Z"
         style="fill:#ffffff;fill-opacity:1;fill-rule:nonzero;stroke:none"
         id="path12" /><path
         d="m 10027.1,4553.21 c -16.7,29.47 -34.26,58.47 -52.58,86.96 -267.92,416.7 -684.03,712.23 -1094.97,988.94 -519.29,349.67 -1053.77,656.41 -1576.46,997.17 -541.28,352.89 -1091.68,693.86 -1668.77,985.65 -1012.78,512.1 -2476.16,1157.93 -3575.78,542.37 -607.76,-340.22 -926.74,-1079.69 -877.81,-1774.48 48.93,-694.79 419.77,-1337.41 910.6,-1831.59 490.83,-494.17 1096.8,-856.77 1709.31,-1188.36 727.04,-393.58 1230.45,-902.86 1978.3,-1307.71 -6.96,-26.18 -16.81,-78.46 -19.81,-105.46 -35.44,-318.8 187.39,-778.3 1525.97,-786.1 391.54,-2.3 767.32,108.6 1014.3,234.6 362.7,35.7 711.56,144.8 1019.58,357.1 84.15,58 164.02,122.2 238.6,192.1 337.57,316.35 559.22,759.8 666.72,1205.03 113.5,470.27 41.4,982.98 -197.2,1403.78"
         style="fill:#acd2ea;fill-opacity:1;fill-rule:nonzero;stroke:none"
         id="path14" /><path
         d="m 2059.3,8284.86 c -607.76,-340.23 -926.74,-1079.7 -877.81,-1774.49 48.93,-694.78 419.77,-1337.4 910.6,-1831.58 C 2582.92,4184.62 3188.9,3822.01 3801.41,3490.43 4659,3026.17 5477.75,2224.51 6383.43,1862.9 c 907.23,-362.2 2079.73,-570.6 2936.31,20 84.15,58 164.02,122.18 238.6,192.06 337.57,316.35 559.16,759.8 666.66,1205.02 113.6,470.28 41.5,982.99 -197.2,1403.79 -16.7,29.46 -34.2,58.46 -52.52,86.95 -267.92,416.71 -684.04,712.24 -1094.97,988.95 -519.29,349.67 -1053.77,656.4 -1576.45,997.16 -541.3,352.9 -1091.69,693.86 -1668.77,985.66 -1012.79,512.1 -2476.16,1157.93 -3575.79,542.37"
         style="fill:#c8e8f7;fill-opacity:1;fill-rule:nonzero;stroke:none"
         id="path16" /><path
         d="m 2162.81,8317.54 c 158.99,71.93 323.48,130.64 494.66,159.47 992.85,167.18 2150.35,-337.43 2977.49,-755.66 577.08,-291.79 1127.48,-632.76 1668.78,-985.66 522.68,-340.76 1057.16,-647.5 1576.45,-997.16 410.93,-276.71 827.04,-572.23 1094.97,-988.95 226.14,-351.76 329.04,-779.43 296.44,-1195.89 L 2162.81,8317.54"
         style="fill:#8fbadd;fill-opacity:1;fill-rule:nonzero;stroke:none"
         id="path18" /><g
         id="g20"><g
           id="g22"
           clip-path="url(#clipPath26)"><path
             d="M 10277.2,3736.91 5898.62,6308.67 c -1.29,11.7 -2.7,23.78 -4.24,36.19 -28.46,227.48 -81.07,396.42 -162.65,629.63 43.11,108.8 83.87,251.2 96.48,420.81 5.97,80.93 4.66,156.84 -1.3,226.72 507.67,-268.59 995.86,-572.76 1476.83,-886.33 522.68,-340.76 1057.16,-647.5 1576.45,-997.16 410.93,-276.71 827.04,-572.23 1094.97,-988.95 0.35,-0.53 0.7,-1.07 1.04,-1.61 0.06,-0.09 0.1,-0.15 0.16,-0.24 0.32,-0.52 0.66,-1.03 0.98,-1.55 0.06,-0.09 0.12,-0.18 0.18,-0.27 0.34,-0.53 0.68,-1.07 1.02,-1.6 0.01,-0.02 0.02,-0.03 0.03,-0.05 0.35,-0.55 0.72,-1.13 1.07,-1.68 0.01,-0.02 0.04,-0.05 0.05,-0.07 0.36,-0.57 0.69,-1.09 1.05,-1.66 0.03,-0.04 0.08,-0.12 0.1,-0.16 0.35,-0.55 0.71,-1.11 1.06,-1.66 0.02,-0.04 0.03,-0.04 0.05,-0.08 0.72,-1.14 1.45,-2.29 2.17,-3.43 0.02,-0.04 0.03,-0.05 0.05,-0.09 0.36,-0.57 0.73,-1.16 1.09,-1.73 v -0.01 c 186.54,-296.92 286.34,-646.32 291.94,-996.78 M 9002.81,5086.25 c -227.27,0 -411.19,-87.35 -411.81,-196.23 -0.65,-109.72 185.02,-199.74 414.68,-201.08 1.73,-0.01 3.43,-0.01 5.17,-0.01 227.26,0 411.19,87.36 411.81,196.25 0.65,109.7 -185.01,199.72 -414.67,201.06 -1.74,0.01 -3.45,0.01 -5.18,0.01 m -544.85,307.3 c -203.93,0 -368.95,-78.4 -369.52,-176.09 -0.57,-98.45 166.01,-179.22 372.09,-180.42 1.56,-0.01 3.09,-0.01 4.65,-0.01 203.92,0 368.95,78.38 369.52,176.09 0.57,98.43 -166.02,179.21 -372.09,180.42 -1.56,0 -3.09,0.01 -4.65,0.01 M 5341.33,6636 2348.71,8393.7 l -1.19,0.7 c 36.72,13.06 73.65,24.93 110.93,35.72 65.73,19.02 132.41,34.62 199.67,47 141.45,26.03 286.14,37.92 432.44,37.92 671.53,0 1379.97,-249.97 1997.11,-529.72 l -157.43,-1.99 c -8.23,7.27 -14.64,13.76 -19.18,19.06 -27.08,-75.64 -57.03,-185.85 -56.98,-317.05 v 0 c 0.01,-25.02 1.11,-50.8 3.53,-77.25 21.07,-228.19 128.6,-382.26 217.84,-520.37 28.06,-43.71 58.44,-91.87 90.89,-145.11 53.63,-88.36 112.49,-190.31 174.99,-306.61 m 379.18,370.46 c -2.82,8.02 -5.67,16.1 -8.56,24.28 2.92,-8.2 5.76,-16.28 8.56,-24.28"
             style="fill:url(#linearGradient32);fill-opacity:1;fill-rule:nonzero;stroke:none"
             id="path34" /></g></g><g
         id="g36"><g
           id="g38"
           clip-path="url(#clipPath42)"><path
             d="m 9010.85,4688.93 c -1.74,0 -3.44,0 -5.17,0.01 -229.66,1.34 -415.33,91.36 -414.68,201.08 0.62,108.88 184.54,196.23 411.81,196.23 1.73,0 3.44,0 5.18,-0.01 229.66,-1.34 415.32,-91.36 414.67,-201.06 -0.62,-108.89 -184.55,-196.25 -411.81,-196.25"
             style="fill:url(#linearGradient48);fill-opacity:1;fill-rule:nonzero;stroke:none"
             id="path50" /></g></g><g
         id="g52"><g
           id="g54"
           clip-path="url(#clipPath58)"><path
             d="m 8465.18,5037.03 c -1.56,0 -3.09,0 -4.65,0.01 -206.08,1.2 -372.66,81.97 -372.09,180.42 0.57,97.69 165.59,176.09 369.52,176.09 1.56,0 3.09,-0.01 4.65,-0.01 206.07,-1.21 372.66,-81.99 372.09,-180.42 -0.57,-97.71 -165.6,-176.09 -369.52,-176.09"
             style="fill:url(#linearGradient64);fill-opacity:1;fill-rule:nonzero;stroke:none"
             id="path66" /></g></g><path
         d="m 8508.23,1886.8 c -2.07,-355.6 -607.19,-640.3 -1351.55,-636 -744.38,4.4 -1346.13,296.1 -1344.06,651.7 2.08,355.62 607.18,640.36 1351.56,636.03 744.36,-4.34 1346.12,-296.12 1344.05,-651.73"
         style="fill:#98c9ea;fill-opacity:1;fill-rule:nonzero;stroke:none"
         id="path68" /><path
         d="m 10530,6056.63 c -1.9,-323.1 -265.3,-583.51 -588.45,-581.62 -323.1,1.87 -583.5,265.33 -581.62,588.44 1.88,323.1 265.33,583.5 588.44,581.62 323.13,-1.89 583.53,-265.33 581.63,-588.44"
         style="fill:#dba7a7;fill-opacity:1;fill-rule:nonzero;stroke:none"
         id="path70" /><g
         id="g72"><g
           id="g74"
           clip-path="url(#clipPath78)"><path
             d="m 7201.26,7215.78 c 7.75,164.69 42.03,325.23 106.01,467.94 273.29,609.56 1060.55,283.7 1487.4,49.17 561.93,-308.74 1020.36,-807.58 1268.03,-1400.13 107.5,-257.22 184.2,-579.76 62.1,-845.93 -103.3,-225.45 -318.71,-375.76 -546.29,-398.41 -427.15,-42.53 -880.01,199.85 -1236.78,423.12 -341.25,213.56 -688.85,455.12 -909.95,799.52 -160.96,250.73 -245.55,585.51 -230.52,904.72"
             style="fill:url(#linearGradient84);fill-opacity:1;fill-rule:nonzero;stroke:none"
             id="path86" /></g></g><path
         d="m 6110.55,3287.14 c -573.32,0 -1038.1,216.29 -1038.1,483.08 0,219.4 314.29,404.63 744.78,463.53 2.79,-5.35 5.57,-10.64 8.33,-15.85 4.8,-8.9 9.4,-17.6 14,-26.07 4.65,-4.51 33.37,-31.56 73.4,-31.56 3.43,0 6.96,0.2 10.55,0.63 40.71,5.06 81.84,75.09 90.02,90.32 31.95,1.38 64.3,2.08 97.02,2.08 573.32,0 1038.09,-216.28 1038.09,-483.08 0,-266.79 -464.77,-483.08 -1038.09,-483.08"
         style="fill:#a2c9e6;fill-opacity:1;fill-rule:nonzero;stroke:none"
         id="path88" /><g
         id="g90"><g
           id="g92"
           clip-path="url(#clipPath96)"><path
             d="m 10359.3,9169.58 c -2.4,-409.79 -240.3,-740.62 -531.49,-738.93 -291.14,1.7 -525.21,335.28 -522.83,745.07 2.39,409.79 240.34,740.62 531.48,738.93 291.14,-1.7 525.24,-335.28 522.84,-745.07"
             style="fill:url(#linearGradient102);fill-opacity:1;fill-rule:nonzero;stroke:none"
             id="path104" /></g></g><path
         d="m 6015,4254.12 c 0,-0.84 -46.02,-87.57 -91.49,-93.22 -45.47,-5.44 -78.9,26.03 -83.95,30.93 -4.6,8.47 -9.2,17.17 -14,26.07 -149.48,282.62 -349.39,762.1 -353.85,1373.81 -1.94,246.87 135.36,506 125.67,607.51 -9.68,101.49 -132.61,197.61 -169.18,270.11 -95.08,188.02 -183.98,344.96 -261.86,473.28 -32.45,53.24 -62.83,101.4 -90.89,145.11 -89.24,138.11 -196.77,292.18 -217.84,520.37 -15.11,165.16 21.21,304.24 53.45,394.3 27.07,-31.65 120.91,-105.07 266.13,-139.3 138.88,-32.73 283.18,28.51 322.59,44.35 1.6,-52.43 -14.8,-159.76 -36.45,-197.2 68.9,-181.96 154.01,-411.36 248.62,-679.5 92.94,-263.26 151.73,-440.52 182.43,-685.88 9.28,-74.65 13.78,-137.04 16.07,-180.17 -36.45,-269.7 -59.52,-603.3 -36.38,-983.68 20.63,-341.47 138.24,-916.3 140.93,-926.89"
         style="fill:#ffba94;fill-opacity:1;fill-rule:nonzero;stroke:none"
         id="path106" /><g
         id="g108"><g
           id="g110"
           clip-path="url(#clipPath114)"><path
             d="m 9427.46,10535.7 c 92.02,-66.4 160.05,-164.2 205.53,-268.5 172.06,-394.6 178.2,-829.77 194.5,-1252.31 23.02,-596.44 252.71,-1752.75 -504.43,-2024.33 -847.15,-303.85 -1173.37,855.28 -1203.22,1450.02 -18.42,367.32 24.83,732.73 73.28,1096.21 38.35,287.84 83.27,598.51 285.5,825.21 104.52,117.2 250.68,192.4 402.8,234.4 162.67,44.9 344.91,52.2 493.33,-27.6 18.38,-9.9 35.94,-20.9 52.71,-33.1"
             style="fill:url(#linearGradient124);fill-opacity:1;fill-rule:nonzero;stroke:none"
             id="path126" /></g></g><path
         d="m 7978.94,1417.1 c -3.56,-8.2 -12.81,-12.8 -21.72,-13.4 -71.63,-4.6 -133.67,40.6 -183.41,98.6 8.63,2.6 17.16,5.7 25.5,9 36.64,15 70.02,37.9 97.23,66.6 32.19,-43.8 67.9,-85.8 82.01,-139.1 1.87,-7.1 3.33,-15 0.39,-21.7"
         style="fill:#ffffff;fill-opacity:1;fill-rule:nonzero;stroke:none"
         id="path128" /><path
         d="m 8063.54,1928.5 c -33.69,-40 -76.3,-66.3 -126.08,-82.4 -6.32,-2.1 -106.39,-20.8 -105.96,-15.8 -7.05,-76.1 -0.87,-151.3 40.61,-217.1 7.54,-12.1 15.89,-23.7 24.43,-35.3 -27.21,-28.7 -60.59,-51.6 -97.23,-66.6 -8.34,-3.3 -16.87,-6.4 -25.5,-9 -40.99,47.7 -73.6,104.2 -96.49,148.6 -23.96,46.6 -52.73,111.2 -75.79,192.7 -9.03,31.4 -17.15,65.4 -23.84,101.7 -1.7,0.7 -3.4,1.5 -5.2,2.2 -104.7,45.4 -233.6,112.57 -368.23,212.71 -82.28,61.17 -151.72,123.47 -209.47,181.79 -22.91,22.97 -43.8,45.33 -63.01,66.78 -29.33,-31.28 -65.58,-65.32 -109.24,-98.22 -39.43,-29.92 -84.97,-58.9 -137,-84.23 -132.68,-64.84 -238.39,-72.63 -315.94,-77.48 -78.65,-4.95 -120.36,3 -149.44,31.51 -25.3,24.79 -51.84,75.92 -28.18,115.55 17.4,29.14 57.45,44.63 86.74,35.55 29.89,-9.29 29.33,-38.24 56.63,-45.41 26.1,-6.86 51.45,12.83 91.19,44.55 48.51,38.67 79.3,63.33 97.96,103.98 22.12,48.35 10.4,82.87 8.06,144.18 -0.78,21.14 -5.39,192.83 84.99,319.8 22.41,31.52 65.67,81.15 145.73,121.64 -61.48,71.97 -76.62,241.22 45.89,261.14 67.27,10.93 74.41,-51.52 87.25,-100.47 10.08,-38.82 20.97,-78.34 42.81,-112.32 26.8,-41.82 69.87,-58.39 114.66,-72.48 58.08,-18.16 113.95,-54.95 167.36,-84.8 115.11,-64.17 227.48,-133.03 339.14,-203.18 146.69,-92.1 315.32,-166.9 442.73,-285.92 64.44,-60.17 116.48,-136.9 133.1,-223.42 18.27,-94.95 -10.56,-196.75 -72.68,-270.25"
         style="fill:#ff826a;fill-opacity:1;fill-rule:nonzero;stroke:none"
         id="path130" /><path
         d="m 7598.1,1855.8 c -7.65,27.9 -14.59,57.8 -20.41,89.5 -105.71,45.4 -236.62,113.16 -373.43,214.91 -114.58,85.2 -204.32,172.55 -272.48,248.57 198.9,84.27 423.69,-115.15 454.68,-142.67 164.2,-145.68 201.54,-338.51 211.64,-410.31"
         style="fill:#ffffff;fill-opacity:1;fill-rule:nonzero;stroke:none"
         id="path132" /><path
         d="m 6522.05,2168.39 c -59.17,-13.38 -109.97,-16.89 -152.45,-19.54 -78.65,-4.95 -120.36,3 -149.44,31.51 -25.3,24.79 -51.84,75.92 -28.18,115.55 17.4,29.14 57.45,44.63 86.74,35.55 29.89,-9.29 29.33,-38.24 56.63,-45.41 26.1,-6.86 51.45,12.83 91.19,44.55 3.63,2.88 7.15,5.66 10.47,8.35 12.66,-62.67 41.75,-123.74 85.04,-170.56"
         style="fill:#ffffff;fill-opacity:1;fill-rule:nonzero;stroke:none"
         id="path134" /><path
         d="m 7038.66,2170.89 c -3.83,-21.31 -21.27,-41.34 -42.43,-46.73 -44.54,-11.36 -91.07,45.9 -114.94,75.19 -17.51,21.43 -42.33,57.73 -58.75,111.21 43.66,32.9 79.91,66.94 109.24,98.22 19.21,-21.45 40.1,-43.81 63.01,-66.78 -3.38,-13.7 -6.57,-27.8 -9.56,-42.3 -3.2,-15.41 -6.09,-30.51 -8.68,-45.33 43.49,-14.47 67.81,-51.66 62.11,-83.48"
         style="fill:#f75f4b;fill-opacity:1;fill-rule:nonzero;stroke:none"
         id="path136" /><path
         d="m 7601.53,1843.6 c -89.89,-25.3 -165.96,-18.7 -193.8,17.4 -15.5,20 -24.78,60.6 -3.74,81.4 15.32,15.1 41.86,14.9 48.87,14.8 26.54,-0.2 45.1,-12.2 51.18,-16.7 22.85,2.4 45.7,4.8 68.45,7 1.8,-0.7 3.5,-1.5 5.2,-2.2 6.69,-36.3 14.81,-70.3 23.84,-101.7"
         style="fill:#f75f4b;fill-opacity:1;fill-rule:nonzero;stroke:none"
         id="path138" /><path
         d="m 5829.2,4211.12 c 22.11,-60.06 30.43,-142.88 30.43,-142.88 l 153.62,-175.71 97.3,11.69 c 0,0 -42.85,165.01 -41.17,190.1 1.69,25.08 -42.51,73.72 -68.04,226.44 -25.54,152.73 -194.25,-49.59 -172.14,-109.64"
         style="fill:#ffba94;fill-opacity:1;fill-rule:nonzero;stroke:none"
         id="path140" /><g
         id="g142"><g
           id="g144"
           clip-path="url(#clipPath148)"><path
             d="m 8813.88,8528.56 c -2.36,-404.38 -262.52,-730.69 -581.09,-728.83 -318.57,1.85 -574.91,331.17 -572.56,735.55 2.36,404.39 262.52,730.71 581.09,728.85 318.57,-1.85 574.91,-331.18 572.56,-735.57"
             style="fill:url(#linearGradient154);fill-opacity:1;fill-rule:nonzero;stroke:none"
             id="path156" /></g></g><path
         d="m 8086.94,2198.13 c -20.72,-31.82 -38.96,-62.77 -97.63,-76.44 -123.27,-28.73 -275.49,93.74 -264.3,226.18 5.81,68.77 34.87,117.08 104.49,153.33 0.8,-17.24 2.81,-33.47 5.64,-47.81 6.8,-34.19 19.75,-64.21 36.63,-90.55 55.17,-86.96 152.05,-134.09 207.08,-160.86 2.6,-1.31 5.29,-2.53 8.09,-3.85"
         style="fill:#ff826a;fill-opacity:1;fill-rule:nonzero;stroke:none"
         id="path158" /><path
         d="m 5529.91,5036.69 20.94,-93.67 c 0,0 112.37,-121.55 265.41,-81.04 78.11,29.48 74.8,136.13 74.8,136.13 l -12.58,117.19 -348.57,-78.61"
         style="fill:#ffaa85;fill-opacity:1;fill-rule:nonzero;stroke:none"
         id="path160" /><path
         d="m 5552.77,4935.02 28.58,-109.19 c 0,0 94.92,-108.01 247.95,-67.51 78.11,29.49 74.81,136.13 74.81,136.13 l -12.59,117.19 -338.75,-76.62"
         style="fill:#ffaa85;fill-opacity:1;fill-rule:nonzero;stroke:none"
         id="path162" /><path
         d="m 5166.34,6942.61 c -14.56,-30.98 -28.28,-65.14 -40.13,-102.48 -16.58,-52.33 -25.95,-100.89 -31.27,-143.13 -112.41,114.79 -273.7,256.08 -489.81,383.3 -245.34,153.46 -674.73,267.52 -675.55,267.48 l -60.13,56.64 -167.96,-16.24 -82.66,-130.18 c 0,0 73.95,-3.85 147.83,-21.87 60.05,-9.18 598.97,-414.88 886.03,-593.25 205.33,-127.59 487.59,-354.23 592.12,-342.42 104.54,11.81 162.89,131.15 183.39,168.87 -95.07,188.02 -183.98,344.96 -261.86,473.28"
         style="fill:#ffba94;fill-opacity:1;fill-rule:nonzero;stroke:none"
         id="path164" /><path
         d="m 4552.31,7110.48 -52.06,28.03 c 0,0 -176.57,-54.7 -201.74,-143.5 -25.18,-88.8 57.93,-158.16 57.93,-158.16 l 34.77,-24.15 161.1,297.78"
         style="fill:#ffaa85;fill-opacity:1;fill-rule:nonzero;stroke:none"
         id="path166" /><path
         d="m 5534.76,5011.2 c -38.53,178.11 -61.5,367.66 -63.05,580.51 -1.94,246.87 103.41,425.22 93.72,526.73 -9.69,101.5 -100.66,278.39 -137.23,350.89 -95.08,188.02 -183.98,344.96 -261.86,473.28 -32.45,53.24 -62.83,101.4 -90.89,145.11 -89.24,138.11 -196.77,292.18 -217.84,520.37 -15.11,165.16 21.21,304.24 53.45,394.3 27.07,-31.65 120.91,-105.07 266.13,-139.3 138.88,-32.73 283.18,28.51 322.59,44.35 1.6,-52.43 -14.8,-159.76 -36.45,-197.2 68.9,-181.96 154.01,-411.36 248.62,-679.5 92.94,-263.26 151.73,-440.52 182.43,-685.88 9.28,-74.65 13.78,-137.04 16.07,-180.17 -36.45,-269.7 -59.52,-603.3 -36.38,-983.68 2.53,-41.84 19.26,-189.05 22.72,-229.58 0,0 0.16,-70.1 -80.53,-89.45 -152.12,-33.46 -263.49,73.04 -263.49,73.04 l -18.01,76.18"
         style="fill:#30b7f1;fill-opacity:1;fill-rule:nonzero;stroke:none"
         id="path168" /><g
         id="g170"><g
           id="g172"
           clip-path="url(#clipPath176)"><path
             d="m 5731.7,6974.41 c -3.71,10.59 -7.41,21.24 -11.19,32.05 v 0 c -2.8,8 -5.64,16.08 -8.56,24.28 v 0 0 c -94.61,268.14 -179.72,497.54 -248.62,679.5 v 0 0 c 4.64,24.61 4.07,53.52 1.29,82.62 187.12,61.88 254.44,200.44 254.44,200.44 l -0.79,-0.01 c 6.97,4.66 14.03,9.66 21.14,15.06 30,-79.53 69.39,-205.26 85.42,-364.02 0.74,-7.36 1.44,-14.8 2.08,-22.31 v 0 c 5.96,-69.88 7.27,-145.79 1.3,-226.72 -12.61,-169.61 -53.37,-312.01 -96.48,-420.81 v 0 c -0.01,-0.03 -0.02,-0.06 -0.03,-0.08"
             style="fill:url(#linearGradient182);fill-opacity:1;fill-rule:nonzero;stroke:none"
             id="path184" /></g></g><path
         d="m 4386.57,6815.92 c 85.99,-57.69 170.8,-118.48 262.91,-175.71 205.33,-127.59 490.8,-351.56 595.33,-339.75 104.54,11.81 162.89,131.15 183.39,168.87 -95.07,188.02 -183.98,344.96 -261.86,473.28 -14.56,-30.98 -28.28,-65.14 -40.13,-102.48 -16.58,-52.33 -25.95,-100.89 -31.27,-143.13 -112.41,114.79 -273.7,256.08 -489.81,383.3 -20.44,12.03 -40.77,23.59 -60.97,34.68 0,0 -122.19,-61.68 -160.92,-147.76 -38.72,-86.09 3.33,-151.3 3.33,-151.3"
         style="fill:#1c88b7;fill-opacity:1;fill-rule:nonzero;stroke:none"
         id="path186" /><path
         d="m 5552.77,4935.02 c -51.88,214.13 -79.46,437.29 -81.06,656.69 -1.94,246.87 96.16,440.42 86.88,528.54 -9.28,88.13 -93.82,276.58 -130.39,349.08 -95.08,188.02 -183.98,344.96 -261.86,473.28 -32.45,53.24 -62.83,101.4 -90.89,145.11 -89.24,138.11 -196.77,292.18 -217.84,520.37 -15.11,165.16 21.21,304.24 53.45,394.3 24.56,-28.88 97.01,-106.67 219.18,-146.06 4.26,-65.55 12.82,-119.71 21.19,-170.48 44.47,-276.3 127.56,-416.28 289.54,-803.17 137.58,-328.41 237.67,-632.66 238.85,-738.82 1.74,-156.15 -22.09,-74.71 -17.68,-479.91 0,0 1.91,-179.89 9.71,-364.66 3.72,-86.93 28.9,-297.61 50.59,-441.68 0,0 -31,0.17 -87.56,24.91 -58.12,25.44 -82.11,52.5 -82.11,52.5"
         style="fill:#25a1df;fill-opacity:1;fill-rule:nonzero;stroke:none"
         id="path188" /><path
         d="m 6263.58,8254.37 c 29.98,-81.13 2.14,-160.72 2.03,-243.73 -0.02,-15.29 4.52,-57.23 26.52,-39.3 12.79,10.43 20.4,32.1 26.69,46.95 4.49,10.62 8.06,21.59 10.88,32.76 2.78,10.99 2.99,24.46 7.31,34.66 28.16,-11.29 48.24,-46.26 51.75,-75.26 3.95,-32.62 -8.41,-66.3 -34.48,-86.8 -12.19,-9.59 -26.82,-16.22 -37.22,-27.7 -10.24,-11.31 -25.56,-49.6 -6.45,-59.9 3.19,-1.71 7.06,-1.39 10.66,-0.92 46.44,6.02 93.95,28.7 123.26,65.96 41.74,53.24 34.92,117.1 28.11,180.35 -5.22,47.79 -21.62,134.55 -85.75,230.45 0,0 -48.91,166 -99.02,271.55 -16.93,35.65 -37.92,72.14 -59.95,107.23 -62.17,99.07 -132.65,187.02 -143.62,213.53 -14.89,35.92 -12.33,225.85 -45.55,364.27 -53.03,222.03 -189.61,379.82 -237.6,395.54 -47.99,15.72 162.99,-232.6 184.38,-442.82 11.19,-110.82 2.5,-188.13 -40.38,-256.57 -31.79,-50.75 -73.19,-82.22 -102.68,-100.44 -0.87,-4.42 -1.74,-8.87 -2.61,-13.29 62.18,-90.27 144.95,-193.85 220.5,-289.41 47.88,-60.57 92.87,-117.93 127.86,-166.64 57.18,-79.57 75.36,-140.47 75.36,-140.47"
         style="fill:#ffaa85;fill-opacity:1;fill-rule:nonzero;stroke:none"
         id="path190" /><g
         id="g192"><g
           id="g194"
           clip-path="url(#clipPath198)"><path
             d="m 5057.73,9671.08 c -4.38,-99.31 24.79,-134.99 31.59,-201.81 2.6,-24.54 7.38,-52.67 3.65,-76.96 -21.04,-19.11 -35.91,-41.72 -61.36,-69.82 -80.5,-102.89 -155.24,-198.2 -224.23,-285.94 -135.69,-72.13 -319.97,-103.18 -466.75,-11.86 -95.2,59.1 -211.3,192.3 -180.67,335.85 16.08,74.94 74.94,165.69 157.08,187.41 69.22,18.41 113.16,-23.07 180.76,8.46 14.84,6.89 46.22,24.67 88.06,94.6 84.94,141.75 35.62,201.43 100.65,298.06 52.24,77.73 160.46,152.53 259.53,141.13 57.66,-6.6 86.01,-39.4 146.72,-29.3 33.86,5.7 61.85,21.8 83.52,39.8 8.48,-67.6 28.63,-127.58 54.75,-179.95 -30.48,-6.58 -72.2,-21.35 -107.49,-56.01 -58.68,-57.79 -63.35,-136.18 -65.81,-193.66"
             style="fill:url(#linearGradient208);fill-opacity:1;fill-rule:nonzero;stroke:none"
             id="path210" /></g></g><path
         d="m 5186.39,9767.99 c -10.63,-45.38 -0.88,-77.99 6.82,-134.46 5.46,-41.25 10.01,-95.82 6.88,-162.38 -19.5,-8.34 -39.2,-16.68 -58.7,-25.02 l -2.34,-2.31 c -6.8,-6.94 -11.96,-16.45 -18.98,-25.92 -10.4,-6.28 -21.39,-17.55 -31.16,-26.79 3.73,24.29 3.01,53.62 0.41,78.16 -6.8,66.82 -35.97,102.5 -31.59,201.81 2.46,57.48 7.13,135.87 65.81,193.66 35.29,34.66 77.01,49.43 107.49,56.01 7.31,-14.63 15.04,-28.62 23.21,-41.98 -29.75,-27.94 -56.81,-64.35 -67.85,-110.78"
         style="fill:#3a2424;fill-opacity:1;fill-rule:nonzero;stroke:none"
         id="path212" /><path
         d="m 5128.1,10071.1 c -5.72,-23.5 -11.49,-61.4 3.29,-116.15 17.26,-63.92 62.86,-108.08 81.32,-125.56 l 41.53,49.38 c 0,0 -70.12,112.57 -76.4,161.73 -7.69,60.3 0.07,62.6 0.07,62.6 l -49.81,-32"
         style="fill:#f75f4b;fill-opacity:1;fill-rule:nonzero;stroke:none"
         id="path214" /><path
         d="m 8478.86,6977.06 1.21,-1776.56 c 0.01,-14.59 -11.81,-26.43 -26.4,-26.44 -14.59,-0.02 -26.42,11.81 -26.43,26.4 l 21.9,1776.78 c 0.1,8.2 6.84,14.77 15.04,14.67 8.14,-0.1 14.67,-6.73 14.68,-14.85"
         style="fill:#bc8f8f;fill-opacity:1;fill-rule:nonzero;stroke:none"
         id="path216" /><path
         d="m 9428.74,8997.45 c -5.71,-24.14 -8.76,-49.3 -17.58,-72.8 l -12.06,-35.73 -15.71,-34.4 c -22.97,-44.81 -51.85,-87.35 -87.84,-123.36 -35.83,-36.12 -77.58,-65.96 -121.89,-90.45 -22.15,-12.32 -45.22,-22.83 -68.63,-32.4 -11.82,-4.5 -23.6,-9.1 -35.62,-12.99 -11.9,-4.27 -24.54,-6.01 -39.01,0.29 -5.13,2.22 -7.36,7.93 -5.23,12.82 l 0.87,1.59 c 9.08,13.29 20.08,18.22 31.45,21.82 11.43,3.49 22.58,7.67 33.79,11.73 22.18,8.69 44.04,18.24 64.99,29.49 42.13,22.13 80.86,50.1 115.68,82.29 35.14,32.01 63.91,70.5 87.61,111.84 25.54,40.76 39.82,87.13 54.45,133.36 l 0.29,0.89 c 1.25,3.95 5.46,6.14 9.41,4.89 3.76,-1.19 5.92,-5.1 5.03,-8.88"
         style="fill:#3978b6;fill-opacity:1;fill-rule:nonzero;stroke:none"
         id="path218" /><path
         d="m 9222.72,9719.56 c 2.97,-32.16 1.07,-65.06 -6.22,-97.15 -7.94,-31.93 -21.69,-62.35 -39.17,-90.21 -17.84,-27.71 -39.9,-52.35 -63.85,-74.43 -11.93,-11.15 -24.62,-21.32 -37.44,-31.25 -12.84,-9.81 -25.86,-19.63 -44.44,-20.13 -4.45,-0.17 -8.2,3.31 -8.37,7.76 -0.04,1.27 0.26,2.59 0.73,3.67 7.78,16.9 20.73,25.02 33.3,33.93 12.29,9.16 24.45,18.52 35.77,28.73 22.89,20.15 43.38,42.78 60.61,67.56 17.45,24.6 31.64,51.63 40.63,80.6 9.29,28.92 13.34,59.33 14.71,90.3 0.19,4.09 3.4,7.03 7.2,6.86 3.48,-0.16 6.24,-2.87 6.54,-6.24"
         style="fill:#3978b6;fill-opacity:1;fill-rule:nonzero;stroke:none"
         id="path220" /><path
         d="m 8354.64,8620.43 c -16.94,-107.61 -13.86,-218.42 9.27,-324.54 23.37,-106.1 67.97,-207.23 130.76,-295.37 l 23.82,-32.84 c 8.54,-10.47 17.55,-20.57 26.3,-30.87 16.9,-21.18 37.12,-39.28 56.01,-58.59 40.16,-36.11 82.01,-70.7 128.29,-98.89 91.32,-57.62 193.09,-100.45 297.95,-123.27 11.81,-2.56 19.03,-13.82 16.55,-25.23 -2.48,-11.41 -13.74,-18.64 -25.14,-16.16 -110.94,25.9 -215.14,71.75 -309.63,133.19 -47.71,30.07 -90.91,66.73 -132.15,105 -19.45,20.4 -40.17,39.6 -57.5,61.91 -8.96,10.86 -18.18,21.53 -26.91,32.56 l -24.33,34.55 c -63.98,92.68 -108.63,198.29 -131.16,308.25 -22.28,110.01 -23.73,223.82 -4.72,334.08 1.08,6.24 6.99,10.42 13.23,9.34 6.18,-1.06 10.33,-6.95 9.36,-13.12"
         style="fill:#3978b6;fill-opacity:1;fill-rule:nonzero;stroke:none"
         id="path222" /><path
         d="m 8126.69,8448.56 c 5.12,-56.56 32.46,-111.36 76.55,-146.6 43.37,-35.89 102.27,-51.32 157.57,-45.8 6.51,0.65 12.07,-3.89 12.7,-10.12 0.61,-6.24 -3.93,-11.79 -10.16,-12.41 -31.38,-2.52 -62.16,1.06 -91.65,10.03 -29.36,9.06 -57.28,23.7 -80.48,43.91 -47.32,39.72 -75.23,99.34 -79.33,159.94 -0.28,4.08 2.82,7.63 6.9,7.9 4.03,0.27 7.53,-2.72 7.89,-6.73 l 0.01,-0.12"
         style="fill:#3978b6;fill-opacity:1;fill-rule:nonzero;stroke:none"
         id="path224" /><g
         id="g226"><g
           id="g228"
           clip-path="url(#clipPath232)"><path
             d="m 6723.09,7171.02 c 11.76,26.45 200.42,433.54 593.57,481.93 472.9,58.19 776.89,-459.78 803.6,-506.89 139.9,-246.72 258.32,-701.69 -1.81,-1000.18 -212.98,-244.39 -547.92,-232.65 -611.91,-228.9 -444.66,26.06 -802.93,428.21 -849.56,826.72 -23.99,205.05 39.42,367.31 66.11,427.32"
             style="fill:url(#linearGradient240);fill-opacity:1;fill-rule:nonzero;stroke:none"
             id="path242" /></g></g><g
         id="g244"><g
           id="g246"
           clip-path="url(#clipPath250)"><path
             d="m 10124.2,10582.1 c -0.8,-139.5 -79.2,-252 -175.1,-251.5 -95.92,0.6 -173.02,114.1 -172.21,253.5 0.82,139.4 79.23,252 175.15,251.4 95.96,-0.6 172.96,-114 172.16,-253.4"
             style="fill:url(#linearGradient258);fill-opacity:1;fill-rule:nonzero;stroke:none"
             id="path260" /></g></g><path
         d="m 5720.57,4858.77 c -5.22,0.03 -9.8,3.85 -10.6,9.18 -20.48,136.04 -45,339.46 -48.9,430.88 -7.72,182.83 -9.71,363.18 -9.73,364.99 -2.72,250.63 5.18,314.46 11.54,365.76 3.8,30.75 6.81,55.03 6.15,114.16 -1.14,102.39 -96.78,397.67 -238.01,734.77 -36.6,87.4 -69.31,162.53 -98.17,228.82 -98.19,225.51 -157.44,361.62 -192.08,576.81 -7.14,43.32 -16.63,109.91 -21.26,180.93 -0.39,5.95 4.12,11.08 10.07,11.46 5.97,0.26 11.09,-4.11 11.47,-10.06 4.58,-70.13 13.97,-135.97 21.03,-178.87 34.21,-212.52 89.74,-340.09 190.56,-571.65 28.89,-66.36 61.64,-141.57 98.28,-229.1 142.2,-339.43 238.53,-637.96 239.7,-742.88 0.68,-60.56 -2.41,-85.48 -6.31,-117.05 -5.95,-47.97 -14.09,-113.67 -11.38,-362.87 0.02,-1.79 2,-181.82 9.71,-364.31 3.87,-90.7 28.29,-293.09 48.69,-428.57 0.88,-5.9 -3.18,-11.4 -9.08,-12.28 l -1.68,-0.12"
         style="fill:#3dcbfc;fill-opacity:1;fill-rule:nonzero;stroke:none"
         id="path262" /><path
         d="m 5381.48,7868.37 c -80.83,39.25 -163.8,78.61 -248.6,117.52 l 585.39,7.4 c -46.91,-31.32 -90.07,-46.95 -122.37,-63.51 -39.93,-20.57 -69.76,-32.18 -96.13,-38.31 0.07,2.97 0.11,5.83 0.11,8.58 0,2.57 -0.03,5.04 -0.1,7.39 -19.06,-7.66 -62.65,-25.94 -118.3,-39.07"
         style="fill:#74b6d3;fill-opacity:1;fill-rule:nonzero;stroke:none"
         id="path264" /><path
         d="m 5350.91,7861.97 c -85.55,41.3 -173.42,82.64 -263.24,123.35 l 45.21,0.57 c 84.8,-38.91 167.77,-78.27 248.6,-117.52 -9.84,-2.33 -20.05,-4.49 -30.57,-6.4"
         style="fill:#5fadd0;fill-opacity:1;fill-rule:nonzero;stroke:none"
         id="path266" /><g
         id="g268"><g
           id="g270"
           clip-path="url(#clipPath274)"><path
             d="m 5262.51,7853.61 c -28.03,0 -56.8,2.76 -85.32,9.48 -13.69,3.22 -26.92,6.8 -39.68,10.65 -1.97,1.76 -4.59,2.8 -7.43,2.8 -0.17,0 -0.33,0 -0.5,-0.01 -0.27,-0.02 -0.54,-0.04 -0.81,-0.08 -95.34,30.26 -163.41,75.8 -198.53,106.88 l 157.43,1.99 c 89.82,-40.71 177.69,-82.05 263.24,-123.35 -27.75,-5.04 -57.64,-8.36 -88.4,-8.36"
             style="fill:url(#linearGradient280);fill-opacity:1;fill-rule:nonzero;stroke:none"
             id="path282" /></g></g><path
         d="m 5272.27,7763.62 c -12.22,0 -24.71,0.3 -37.52,0.93 -31.47,3.35 -59.95,8.71 -85.73,15.59 -3.16,27.01 -6.01,56.27 -7.97,86.33 -0.18,2.93 -1.52,5.47 -3.54,7.27 12.76,-3.85 25.99,-7.43 39.68,-10.65 28.52,-6.72 57.29,-9.48 85.32,-9.48 108.43,0 205.95,41.24 237.27,53.83 0.07,-2.35 0.1,-4.82 0.1,-7.39 0,-2.75 -0.04,-5.61 -0.11,-8.58 -17.04,-3.95 -32.63,-5.62 -48.56,-5.94 4.41,-27.22 10.29,-60.06 13.41,-92.67 -53.8,-17.8 -117.49,-29.24 -192.35,-29.24 m -152.41,96.19 c -95.11,33.09 -158.67,89 -191.6,123.5 l 1.98,0.02 c 35.12,-31.08 103.19,-76.62 198.53,-106.88 -5.54,-0.77 -9.63,-5.71 -9.26,-11.38 0.12,-1.76 0.23,-3.51 0.35,-5.26"
         style="fill:#249ace;fill-opacity:1;fill-rule:nonzero;stroke:none"
         id="path284" /><g
         id="g286"><g
           id="g288"
           clip-path="url(#clipPath292)"><path
             d="m 5464.62,7792.86 c -3.12,32.61 -9,65.45 -13.41,92.67 15.93,0.32 31.52,1.99 48.56,5.94 26.37,6.13 56.2,17.74 96.13,38.31 32.3,16.56 75.46,32.19 122.37,63.51 l 0.79,0.01 c 0,0 -67.32,-138.56 -254.44,-200.44"
             style="fill:url(#linearGradient298);fill-opacity:1;fill-rule:nonzero;stroke:none"
             id="path300" /></g></g><path
         d="m 5126.54,7786.73 c -183.58,58.78 -215.6,196.36 -215.6,196.36 l 17.32,0.22 c 32.93,-34.5 96.49,-90.41 191.6,-123.5 1.74,-25.27 4.07,-49.92 6.68,-73.08"
         style="fill:#1f92c7;fill-opacity:1;fill-rule:nonzero;stroke:none"
         id="path302" /><path
         d="m 5149.02,7780.14 c -7.73,2.06 -15.23,4.26 -22.48,6.59 -2.61,23.16 -4.94,47.81 -6.68,73.08 -0.12,1.75 -0.23,3.5 -0.35,5.26 -0.37,5.67 3.72,10.61 9.26,11.38 v 0 c 0.27,0.04 0.54,0.06 0.81,0.08 0.17,0.01 0.33,0.01 0.5,0.01 2.84,0 5.46,-1.04 7.43,-2.8 v 0 c 2.02,-1.8 3.36,-4.34 3.54,-7.27 1.96,-30.06 4.81,-59.32 7.97,-86.33"
         style="fill:#29a2d2;fill-opacity:1;fill-rule:nonzero;stroke:none"
         id="path304" /><path
         d="m 5947.77,8962.94 c -31.78,-50.75 -73.18,-82.22 -102.67,-100.43 -35.73,-183.9 -63.35,-317.73 -82.92,-410.83 -15,-71.14 -30.42,-143.34 -33.12,-243.3 -2.18,-84.11 5.44,-153.9 12.98,-201.71 -54.98,-41.75 -104.61,-70.41 -141.71,-89.43 -65.71,-33.86 -290.6,-106.1 -429.49,-73.37 -145.21,34.24 -230.08,125.19 -257.16,156.84 36.36,72.49 251.95,510.03 241.9,814.66 -5.4,162.15 -18.58,222.68 -18.58,222.68 -30.47,138.82 -98.99,209.5 -70.74,304.87 13.58,46.63 56.89,90.91 77.76,101.53 20.86,10.63 606.5,272.83 668.94,260.7 62.44,-12.13 153.81,-275.42 175.2,-485.64 11.19,-110.82 2.49,-188.12 -40.39,-256.57"
         style="fill:#ff826a;fill-opacity:1;fill-rule:nonzero;stroke:none"
         id="path306" /><path
         d="m 5563.47,8746.36 c -6.63,33.05 150.58,37.35 281.5,119.39 l -19.01,-85.91 c 0,0 -255.38,-68.9 -262.49,-33.48"
         style="fill:#f75f4b;fill-opacity:1;fill-rule:nonzero;stroke:none"
         id="path308" /><path
         d="m 5255.86,8596.63 c -46.15,-304.09 -126.27,-378.87 -128.25,-646.86 -0.21,-33.82 0.67,-64.68 2.62,-93.44 -122.15,39.39 -194.61,117.18 -219.18,146.06 36.35,72.49 251.96,510.03 241.9,814.66 -5.4,162.15 -18.57,222.68 -18.57,222.68 -30.48,138.82 -83.75,209.94 -55.5,305.31 13.15,44.95 40,57.69 60.84,78.71 49.76,-92.02 100.39,-194.41 126.35,-343.57 32.93,-190 10.89,-343.96 -10.21,-483.55"
         style="fill:#f75f4b;fill-opacity:1;fill-rule:nonzero;stroke:none"
         id="path310" /><path
         d="m 5314.29,7396.58 c -34.58,2.5 -62.81,23.56 -79.49,53.43 -14.36,25.7 -14.57,59.28 20.04,66.66 15.84,3.38 32.74,-1.84 45.64,-11.6 12.91,-9.78 22.17,-23.71 28.79,-38.49 5.77,-12.87 16.67,-39.02 31.01,-17.17 32.13,48.97 -32.94,103.21 -67.82,128.78 -47.76,35.02 -104.81,47.98 -156.36,69.96 -41.72,17.8 -251.85,402.11 -336.28,536.27 -29.41,47.04 -58.89,94.13 -85.13,143.05 -24.95,46.51 -50.44,79.19 -18.08,126.68 77.22,113.33 190.9,211.31 284.41,312.04 135.09,145.56 339.19,313.18 279.19,531.63 -14.29,52.01 -27.08,137.17 -81.02,136.95 -47.73,-0.21 -84.25,-40.76 -114.17,-77.95 -194.66,-242.03 -389.32,-484.06 -583.98,-726.09 -80.53,-100.13 -141.14,-199.96 -88.76,-327.62 45.74,-111.53 123.24,-212.33 202.02,-302.49 135.08,-154.58 255.05,-248.51 382.35,-408.71 45.02,-56.64 107.51,-171.49 148.95,-231.01 40.77,-58.58 113.79,-84.23 182.47,-67.25 39.07,9.67 74.61,30.59 106.07,55.68 8.51,6.77 17.21,14.6 19.76,25.16 11.82,49 -95.76,21.23 -115.8,21.89 -1.28,0.04 -2.55,0.1 -3.81,0.2"
         style="fill:#ffba94;fill-opacity:1;fill-rule:nonzero;stroke:none"
         id="path312" /><path
         d="m 5438.07,9572.1 c -21.2,-22.6 46.22,-165.22 200.13,-125.41 97.09,36.67 12.33,149.89 12.33,149.89 0,0 -191.27,-1.87 -212.46,-24.48"
         style="fill:#ffba94;fill-opacity:1;fill-rule:nonzero;stroke:none"
         id="path314" /><path
         d="m 5468.17,9579.87 c -10.37,-3.04 -21.77,-10.41 -31.2,-18.13 -1.9,-1.51 -5.48,-5.16 -3.8,-3.79 0.64,0.57 0.01,-0.24 0.49,-2.4 0.47,-3.9 2.48,-9.47 5.14,-14.58 10.53,-21.36 29.33,-40.43 50.09,-54.17 21.05,-13.7 44.7,-23.11 69.47,-26.21 24.68,-3.59 50.18,-1.36 74.93,5.08 l -2.01,-0.63 c 11.57,4.38 21.51,10.45 27.19,18.36 6.07,7.66 8.72,17.88 8.45,30.07 -0.92,24.27 -11.9,52.24 -24.86,76.77 -3,5.7 -1.02,12.12 4.17,14.86 4.35,2.29 9.57,1.26 12.75,-2.19 11.1,-12.01 19.45,-24.94 27.4,-39.07 7.43,-14.24 13.5,-29.9 15.64,-47.59 2.56,-17.39 -0.91,-38.31 -12.38,-54.98 -11.48,-16.86 -28.6,-26.48 -44.51,-32.92 l -1.74,-0.57 c -29.38,-7.31 -60.35,-10.01 -90.75,-5.01 -30.27,4.98 -59.66,16.84 -83.98,35.35 -24.26,18.51 -44.96,41.37 -57.53,70.8 -2.86,7.58 -5.39,15.45 -5.6,25.47 -0.15,4.75 0.51,11.13 4.47,17.72 5.31,7.37 7.82,7.62 11.25,10.47 12.94,8.52 26.19,15.61 43.2,18.1 5.77,0.84 11.14,-3.15 11.99,-8.91 0.77,-5.28 -2.5,-10.21 -7.48,-11.66 l -0.79,-0.24"
         style="fill:#f75f4b;fill-opacity:1;fill-rule:nonzero;stroke:none"
         id="path316" /><path
         d="m 5685.09,9640.38 c -4.79,-23.64 -13.63,-53.61 -30.72,-85.63 -15.39,-28.67 -29.78,-61.69 -47.52,-65.68 -17.74,-3.98 -50.92,3.47 -85.89,23.33 -53.93,30.75 -61.88,34.94 -76.78,52.78 10.1,27.84 15.78,106.52 18.35,149.2 6.54,106.92 -41.54,211.04 -63.73,248.16 20.38,-20.84 50.5,-52.57 62.31,-56.65 76.31,-143.33 160.28,-243.37 223.98,-265.51"
         style="fill:#ffaa85;fill-opacity:1;fill-rule:nonzero;stroke:none"
         id="path318" /><path
         d="m 5685.09,9640.38 -6.9,-27.63 c 0,0 -6.54,-36.22 -39.22,-33.38 -61.1,5.29 -155.61,286.33 -155.61,286.33 l 201.73,-225.32"
         style="fill:#fb9b69;fill-opacity:1;fill-rule:nonzero;stroke:none"
         id="path320" /><path
         d="m 5884.27,10187.5 c 3.48,-79.8 2.36,-198.96 -25.19,-321.98 -9.03,-40.37 -23.95,-94.69 -61.76,-151.82 -24.19,-36.57 -44.61,-67.42 -71.45,-75.67 -64.87,-19.94 -170.67,91.11 -264.76,267.86 -14.87,5.06 -38.67,25.66 -65.6,58.32 -22.59,27.38 -37.99,67.49 -14.82,101.99 3.83,5.7 13.68,17.2 38.26,16.9 26.59,-0.2 47.51,-24.5 48.43,-26.2 21.5,-1.1 67.65,15.8 117.41,41.6 63.78,33.2 92.37,86.8 101.25,105.4 16.95,-38.8 54.09,-65 96.06,-67.8 40.67,-2.7 79.82,17 102.17,51.4"
         style="fill:#ffba94;fill-opacity:1;fill-rule:nonzero;stroke:none"
         id="path322" /><path
         d="m 5452.26,10067.6 c 66.94,-73.73 202,32.3 253.85,38.1 48.03,5.5 58.58,-36 149.7,-0.8 84.67,32.6 55.99,84.8 55.99,84.8 l -161.74,165.4 c 0,0 -369.39,-208.7 -297.8,-287.5"
         style="fill:#fb9b69;fill-opacity:1;fill-rule:nonzero;stroke:none"
         id="path324" /><path
         d="m 5959.18,10292.8 c 7.69,-23.3 20.13,-71.2 8.18,-126.1 -14.33,-66.3 -54.75,-110.6 -84.69,-135.6 3.93,59.8 2.62,121.6 0.76,164.3 -22.18,-34.3 -70.02,-50.1 -110.8,-47.3 -41.84,2.7 -69.69,17 -86.59,55.8 -8.98,-18.6 -37.4,-72.1 -101.22,-105.3 -49.82,-25.9 -96.11,-26.5 -117.66,-25.3 -0.83,1.6 -16.32,27.9 -42.95,28.1 -24.52,0.1 -39.44,-22 -43.28,-27.6 -23.24,-34.6 -9.58,-84.33 9.48,-114.24 4.61,-7.22 9.85,-13.58 15.11,-19.11 22.19,-37.12 63.55,-119.15 57.01,-226.07 -0.94,-17.32 -3.15,-33.37 -6.19,-48.36 -68.84,47.53 -252.09,194.22 -280.68,439.38 -5.63,48.6 -25.56,219.1 85.81,362.2 116.92,150.2 351.19,235.3 506.01,146 55.2,-32 88.74,-79.3 108.81,-116.6 4.64,-1.9 90.45,-39.6 92.95,-122.6 1.21,-40.6 -2.58,-67.2 -10.06,-81.6"
         style="fill:#3a2323;fill-opacity:1;fill-rule:nonzero;stroke:none"
         id="path326" /><g
         id="g328"><g
           id="g330"
           clip-path="url(#clipPath334)"><path
             d="m 5976.19,10339.6 c -8.2,-29.8 -26.2,-101.3 -90.13,-154 -27.39,-22.5 -66.41,-51.2 -114.16,-46.9 -8.66,0.9 -17.31,2.6 -25.54,5.8 l -1.68,0.7 c -22.78,10.1 -42.12,27.5 -54.25,49.8 42.74,44.1 83.88,103 109.48,179.4 24.31,72.8 27.45,140.8 22.07,196.9 24.58,-24.7 41.98,-51.4 54.31,-74.3 4.64,-1.9 88.34,-37.5 99.91,-119.8 2.03,-13.6 1.53,-26.2 -0.01,-37.6"
             style="fill:url(#linearGradient346);fill-opacity:1;fill-rule:nonzero;stroke:none"
             id="path348" /></g></g><g
         id="g350"><g
           id="g352"
           clip-path="url(#clipPath356)"><path
             d="m 5753.1,9954.04 c 11.53,-0.45 12.36,-64.1 16.61,-78.57 8.83,-30.12 28.22,-22.8 32.04,-42.12 3.4,-17.19 -17.36,-36.28 -44.15,-21.73 -37.24,20.23 -16.03,142.87 -4.5,142.42"
             style="fill:url(#linearGradient364);fill-opacity:1;fill-rule:nonzero;stroke:none"
             id="path366" /></g></g><path
         d="m 5684.89,9747.61 101.96,13.46 c 0,0 -14.37,-53.33 -44.39,-53.84 -37.99,-0.01 -57.57,40.38 -57.57,40.38"
         style="fill:#ff826a;fill-opacity:1;fill-rule:nonzero;stroke:none"
         id="path368" /><path
         d="m 5679.8,9986.56 c -0.1,-18.61 -10.58,-33.63 -23.41,-33.56 -12.83,0.08 -23.14,15.22 -23.03,33.83 0.11,18.57 10.6,33.67 23.42,33.57 12.83,-0.1 23.14,-15.2 23.02,-33.84"
         style="fill:#453faf;fill-opacity:1;fill-rule:nonzero;stroke:none"
         id="path370" /><path
         d="m 5855.22,10005.3 c -0.1,-18.65 -10.58,-33.67 -23.41,-33.6 -12.83,0.08 -23.14,15.22 -23.03,33.8 0.11,18.6 10.6,33.7 23.42,33.6 12.83,-0.1 23.14,-15.2 23.02,-33.8"
         style="fill:#453faf;fill-opacity:1;fill-rule:nonzero;stroke:none"
         id="path372" /><path
         d="m 5870.79,10080.2 c 2.22,12.1 -25.65,16.2 -41.72,15.3 -16.06,-0.9 -30.36,-2.6 -30.68,-13.8 -0.32,-11.1 70.17,-13.6 72.4,-1.5"
         style="fill:#603838;fill-opacity:1;fill-rule:nonzero;stroke:none"
         id="path374" /><path
         d="m 5677.64,10068.4 c -3.15,13.3 -33.15,5 -48.98,-3 -15.84,-8.1 -33.45,-19.3 -28.82,-30.7 4.64,-11.4 80.93,20.5 77.8,33.7"
         style="fill:#603838;fill-opacity:1;fill-rule:nonzero;stroke:none"
         id="path376" /><path
         d="m 5684.89,9747.61 101.96,13.46 c 0,0 -19.54,-30.61 -45.81,-31.74 -26.27,-1.14 -56.15,18.28 -56.15,18.28"
         style="fill:#f75f4b;fill-opacity:1;fill-rule:nonzero;stroke:none"
         id="path378" /><g
         id="g380"><g
           id="g382"
           clip-path="url(#clipPath386)"><path
             d="m 5819.6,10314.1 c -43.94,-67.5 -99,-154.5 -232.65,-220 -28.79,-14.1 -57.4,-28.7 -88.14,-38.2 -8.18,-2.5 -16.33,-6 -24.98,-6.4 -9.1,-0.4 -13.76,7.8 -19.34,13.8 -9.06,9.9 -22.1,16 -35.48,16.7 -36,1.7 -55.55,-31.1 -49.08,-63.8 3.17,-16 11.15,-30.6 20.29,-44.08 8.93,-13.16 21.54,-25.79 27.9,-40.33 4.28,-9.81 8.82,-19.61 12.82,-29.58 10.07,-25.08 17.85,-51.09 23.32,-77.54 7.48,-36.2 10.53,-73.37 8.27,-110.29 -0.94,-17.32 -3.15,-33.37 -6.19,-48.36 -68.84,47.53 -252.09,194.22 -280.68,439.38 -5.63,48.6 -25.56,219.1 85.81,362.2 116.92,150.2 351.19,235.3 506.01,146 21.28,-12.3 80.7,-42.5 108.81,-116.6 5.38,-56.1 -9.81,-110.8 -56.69,-182.9"
             style="fill:url(#linearGradient398);fill-opacity:1;fill-rule:nonzero;stroke:none"
             id="path400" /></g></g><path
         d="m 5418.84,10036.3 c -8.97,-1.5 -15.93,-10.6 -14.92,-19.7 0.67,-6.1 4.42,-11.4 8.04,-16.4 8.53,-11.76 17.04,-23.51 25.56,-35.26 2.24,-3.08 4.53,-6.23 7.65,-8.42 3.11,-2.19 7.24,-3.3 10.79,-1.9 5.89,2.32 7.38,9.92 7.22,16.25 -0.38,15.06 -5.36,29.93 -13.91,42.33 -6.56,9.5 -17.2,25.3 -30.43,23.1"
         style="fill:#fb9b69;fill-opacity:1;fill-rule:nonzero;stroke:none"
         id="path402" /><path
         d="m 4591,8004.89 51.38,-57.54 c 0,0 -5.15,85.34 57.92,141.99 63.08,56.66 117.82,64.39 117.82,64.39 l -44.08,71.04 -150.83,-65.64 -32.21,-154.24"
         style="fill:#fb9b69;fill-opacity:1;fill-rule:nonzero;stroke:none"
         id="path404" /><g
         id="g406"><g
           id="g408"
           clip-path="url(#clipPath412)"><path
             d="m 4796.53,8188.68 c -29.41,47.05 -58.89,94.14 -85.13,143.06 -24.96,46.51 -50.45,79.18 -18.09,126.68 43.26,63.48 110.76,106.16 164.26,159.98 165.14,166.13 263.6,261.87 360.04,413.87 43.06,67.87 73.81,120.99 77.2,192.31 3.31,69.23 -15.93,195.23 -92.66,213.29 -55.63,13.1 -105.77,-27.41 -170.54,-115.38 -248.28,-317.54 -650.03,-765.64 -667.04,-888.84 -16.25,-117.7 128.18,-316.33 226.43,-428.76 0,0 -1.27,75.62 62.89,129.41 64.16,53.79 142.64,54.38 142.64,54.38"
             style="fill:url(#linearGradient418);fill-opacity:1;fill-rule:nonzero;stroke:none"
             id="path420" /></g></g><path
         d="m 6060.36,8561.48 27.97,-35.47 c 0,0 58.72,-17.19 113.96,16.99 55.25,34.19 49.09,108.97 49.09,108.97 l -32.83,53.45 -158.19,-143.94"
         style="fill:#fb9b69;fill-opacity:1;fill-rule:nonzero;stroke:none"
         id="path422" /><g
         id="g424"><g
           id="g426"
           clip-path="url(#clipPath430)"><path
             d="m 6227.92,8690.67 c -62.17,99.07 -132.65,187.02 -143.62,213.53 -14.89,35.92 -12.33,225.85 -45.55,364.27 -53.03,222.03 -173.81,420.46 -221.8,436.17 -47.99,15.71 147.19,-273.23 168.58,-483.45 11.19,-110.82 2.5,-188.13 -40.38,-256.57 -31.79,-50.75 -73.19,-82.22 -102.68,-100.44 -0.87,-4.42 -1.74,-8.87 -2.61,-13.29 62.18,-90.27 144.95,-193.85 220.5,-289.41 0,0 55.33,5.96 103.96,38.71 48.63,32.74 63.6,90.48 63.6,90.48"
             style="fill:url(#linearGradient436);fill-opacity:1;fill-rule:nonzero;stroke:none"
             id="path438" /></g></g><path
         d="m 8440.76,5935.53 c -107.67,21.26 -208.11,58.76 -304.43,106.95 -95.76,48.63 -185.31,109.94 -263.67,183.55 -38.93,37.06 -74.94,77.08 -107.87,119.49 -32.12,43.05 -61.22,88.27 -86.31,135.68 -49.58,95.13 -82.92,198.05 -101.9,303.01 -0.92,5.06 2.44,9.9 7.5,10.82 5,0.9 9.81,-2.46 10.8,-7.42 20.6,-102.93 55.16,-203.04 105.18,-294.84 25.31,-45.73 54.43,-89.19 86.39,-130.43 32.77,-40.61 68.42,-78.8 106.84,-114.05 77.34,-70 165.3,-127.87 259.12,-173.35 93.61,-44.94 194.27,-79.92 294.76,-97.81 l 1.36,-0.25 c 11.44,-2.04 19.06,-12.95 17.03,-24.4 -2.04,-11.44 -12.97,-19.06 -24.41,-17.02 l -0.39,0.07"
         style="fill:#bc8f8f;fill-opacity:1;fill-rule:nonzero;stroke:none"
         id="path440" /><path
         d="m 8465.22,6758.84 c 1.43,8.4 6.64,10.55 11.42,13.47 4.8,2.93 9.54,5.98 14.2,9.19 9.38,6.33 18.43,13.2 27.24,20.33 17.59,14.29 33.51,30.46 48.21,47.5 14.95,16.91 27.12,35.93 37.35,55.84 11.04,19.69 17.02,41.4 22.78,63.28 l 0.23,0.9 c 1.48,5.63 7.25,9 12.88,7.52 5.22,-1.37 8.49,-6.41 7.77,-11.62 -3.29,-24.37 -8.81,-48.93 -19.07,-71.61 -10.22,-22.58 -22.77,-44.27 -38.2,-63.58 -15.19,-19.52 -32.74,-36.99 -51.43,-52.92 -9.42,-7.89 -19.09,-15.47 -29.19,-22.52 -5.01,-3.57 -10.14,-6.99 -15.38,-10.29 -5.23,-3.32 -10.21,-7.18 -19.21,-4.33 -7.05,2.24 -11.22,9.31 -10.01,16.4 l 0.41,2.44"
         style="fill:#bc8f8f;fill-opacity:1;fill-rule:nonzero;stroke:none"
         id="path442" /><path
         d="m 7629.86,6610.04 c -1.44,-2.76 -3.08,-1.34 -4.49,-1.83 l -4.36,-0.13 c -2.87,-0.02 -5.76,-0.12 -8.58,0.04 -5.68,0.09 -11.31,0.57 -16.92,1.12 -11.22,1.15 -22.3,3.26 -33.21,6.02 -21.78,5.62 -42.79,14.68 -61.54,27.18 -18.62,12.5 -35.91,27.46 -49.19,45.46 -14.04,17.46 -23.96,37.45 -32.91,57.52 -1.77,3.96 0.02,8.61 3.99,10.37 3.84,1.72 8.33,0.09 10.2,-3.63 9.56,-19.05 19.61,-37.25 33.18,-52.6 12.61,-16.12 28.63,-29.07 45.66,-39.83 17.14,-10.76 36.2,-18.32 55.95,-22.81 9.88,-2.18 19.89,-3.8 29.98,-4.55 5.04,-0.33 10.07,-0.62 15.09,-0.55 2.51,-0.08 4.98,0.09 7.45,0.17 l 3.64,0.23 c 1.27,-0.33 2.29,1.27 3.5,-1.2 l 2.77,-5.64 c 2.46,-5.01 2.17,-10.73 -0.21,-15.34"
         style="fill:#bc8f8f;fill-opacity:1;fill-rule:nonzero;stroke:none"
         id="path444" /><path
         d="m 7918.29,6657.76 2.55,-43.43 c 0.05,-14.55 -0.7,-29.18 -1.08,-43.8 -3.8,-29.08 -8.22,-58.58 -19.98,-86.35 -10.96,-27.78 -27.09,-54.39 -49.43,-75.56 -11.13,-10.53 -23.41,-20.03 -37,-27.42 -6.74,-3.77 -13.73,-7.17 -21.04,-9.92 -7.36,-2.57 -14.36,-6.55 -24.01,-3.02 -5.95,2.18 -9,8.76 -6.83,14.71 0.35,0.93 0.79,1.79 1.32,2.57 l 2.55,3.65 c 4.31,6.18 11.02,6.16 16.88,8.82 6,2.15 11.91,4.91 17.59,7.98 11.51,6 22.02,13.9 31.65,22.72 19.29,17.72 33.77,40.59 43.99,65.33 10.98,24.61 15.48,51.9 19.49,78.96 0.88,13.77 2.27,27.52 2.85,41.37 l -0.57,41.77 -0.01,0.86 c -0.08,5.83 4.58,10.62 10.41,10.7 5.65,0.07 10.34,-4.34 10.67,-9.94"
         style="fill:#bc8f8f;fill-opacity:1;fill-rule:nonzero;stroke:none"
         id="path446" /><path
         d="m 6529.06,3631.15 c 9.02,-24.24 0.69,-54.89 -15.93,-75.08 -8.25,-10.35 -18.19,-18.87 -29.01,-25.41 -10.3,-6.21 -18.93,-10.45 -28.97,-14.48 -19.5,-8.06 -40.03,-12.61 -60.61,-15.25 -20.58,-2.63 -41.41,-3.66 -62.17,-1.69 -83.37,7.5 -154.41,47.39 -213.8,93.8 -29.6,23.8 -57.06,49.36 -82.75,76.33 -12.92,13.2 -25.59,27.42 -37.24,41.03 -11.61,13.09 -23.61,25.55 -36.81,36.06 -12.97,10.79 -27.37,19.14 -41.74,25.96 -14.27,6.7 -30.69,11.54 -48.59,18 -17.58,6.5 -37.71,15.56 -55.06,30.76 -17.84,14.17 -32.03,38.61 -28.76,62.68 1.68,12.36 13.05,21.02 25.42,19.34 4.69,-0.63 8.85,-2.67 12.12,-5.63 l 3.49,-3.17 c 12.15,-10.97 18.31,-18.24 27.82,-27.6 9.77,-8.79 22.36,-16.16 37.79,-23.92 15.14,-7.94 32.62,-15.8 49.91,-26.68 17.23,-10.6 32.14,-23.63 46.41,-36.47 14.05,-13.14 27.37,-26.46 40.1,-39.97 12.57,-13.14 24.6,-25.22 37.59,-37.13 26.05,-23.29 53.86,-44.45 83.41,-62 58.68,-35.32 123.89,-57.38 185.37,-59.47 15.24,-0.04 30.65,0.42 45.77,2.89 15.15,2.33 29.88,6.31 44.33,10.42 6.98,1.94 14.98,4.78 20.83,6.57 5.24,1.66 10.28,3.55 14.8,5.94 9.44,4.72 16.96,9.99 23.96,21.99 l 3.23,5.55 c 6.04,10.35 19.33,13.86 29.68,7.82 4.5,-2.62 7.72,-6.65 9.41,-11.19"
         style="fill:#ff826a;fill-opacity:1;fill-rule:nonzero;stroke:none"
         id="path448" /><path
         d="m 6515.94,3630.04 c 1.46,-28.37 -25,-52.48 -52.69,-65.62 -43.99,-20.86 -96.35,-28.57 -144.38,-22.86 -116.96,13.89 -223.79,94.3 -300.41,179.32 -26.27,29.14 -55.02,57.03 -90.03,75.45 -20.15,10.59 -41.92,17.81 -62.25,28.04 -27.83,14.02 -50.09,33.79 -58.05,64.76 -8.21,31.96 5.09,79.49 9.71,111.53 3.95,27.33 -5.51,74.82 26.05,87.05 29.13,11.27 142.45,-153.36 174.4,-147.21 37.24,7.39 21.15,130.32 51.09,153.82 21.5,-47.47 38.55,-59.83 62.45,-92.52 63.11,-86.6 143.46,-153.44 166.4,-172.17 27.28,-22.11 56.57,-40.84 83.3,-63.25 31.42,-26.33 62.83,-52.67 94.24,-79.01 10.92,-9.15 21.98,-18.45 30.13,-30.15 6.5,-9.33 9.59,-18.46 10.04,-27.18"
         style="fill:#ffffff;fill-opacity:1;fill-rule:nonzero;stroke:none"
         id="path450" /><path
         d="m 6394.37,3742.02 c -0.08,-3.31 -1.13,-6.93 -3.4,-10.93 -4.9,-8.58 -14,-13.89 -23.13,-17.68 -40.49,-16.83 -87.95,-10.77 -127.28,8.59 -60.57,29.83 -101.37,86.96 -143.28,137.78 -40.36,48.9 -83.32,104.89 -87.37,170.7 -2.65,43.09 36.23,76.19 60.75,73.24 24.53,-2.95 37.27,-69.23 61.17,-101.92 68.51,-94.01 160.22,-173 252.18,-243.34 6.08,-4.64 10.56,-8.04 10.36,-16.44"
         style="fill:#f75f4b;fill-opacity:1;fill-rule:nonzero;stroke:none"
         id="path452" /><path
         d="m 6096.95,3770.22 -0.88,0.05 c -5.82,0.51 -10.1,5.66 -9.59,11.47 6.5,72.74 46.81,131.46 110.61,161.05 5.28,2.49 11.57,0.17 14.02,-5.13 2.46,-5.3 0.17,-11.59 -5.13,-14.03 -56.75,-26.34 -92.64,-78.74 -98.45,-143.79 -0.49,-5.5 -5.14,-9.64 -10.58,-9.62"
         style="fill:#ff826a;fill-opacity:1;fill-rule:nonzero;stroke:none"
         id="path454" /><path
         d="m 6183.44,3717.65 c -5.78,0.03 -10.47,4.7 -10.51,10.47 -0.15,19.83 3.84,58.28 32.01,93.36 20.23,25.19 44.63,38.2 61.53,44.68 5.39,2.1 11.56,-0.64 13.65,-6.08 2.1,-5.44 -0.64,-11.55 -6.09,-13.64 -14.47,-5.56 -35.34,-16.68 -52.61,-38.18 -24.09,-29.99 -27.47,-62.98 -27.36,-79.97 0.04,-5.84 -4.65,-10.59 -10.5,-10.64 h -0.12"
         style="fill:#ff826a;fill-opacity:1;fill-rule:nonzero;stroke:none"
         id="path456" /><path
         d="m 6264.42,3685.47 c -6.28,0.28 -10.78,5.24 -10.49,11.06 0.76,16.1 5.18,40.24 21.87,63.86 20.35,28.78 47.91,40.79 62.54,45.4 5.58,1.74 11.5,-1.33 13.25,-6.89 1.76,-5.59 -1.34,-11.51 -6.9,-13.26 -12.08,-3.8 -34.87,-13.75 -51.62,-37.45 -13.75,-19.46 -17.41,-39.38 -18.04,-52.65 -0.26,-5.7 -4.97,-10.1 -10.61,-10.07"
         style="fill:#ff826a;fill-opacity:1;fill-rule:nonzero;stroke:none"
         id="path458" /><path
         d="m 3094.08,7161.25 c -3.68,10.88 -3.25,24.32 0.66,35.27 3.66,11.17 9.82,19.99 15.9,27.45 12.51,14.58 26.58,24.44 38.07,32.58 23.53,16.44 48.1,33.19 74.45,48.85 52.85,30.93 108.08,53.71 162.09,76.94 l 80.86,34.84 c 12.84,5.98 25.08,12.15 36.36,19.09 11.14,6.37 18.27,14.38 26.48,25.63 7.76,11.11 14.86,24.14 24.74,37.75 11.07,14.07 20.75,25.06 36.49,36.17 15.25,10.94 34.83,18.46 54.26,19.19 15.6,1.63 23.35,-1.38 32.94,-4.11 9.4,-3.74 17,-6.31 28.94,-16.7 9.85,-6.27 12.75,-19.33 6.49,-29.18 -6.27,-9.84 -19.32,-12.75 -29.18,-6.49 -0.91,-3.15 -8.14,-3.24 -13.17,-4.97 -4.94,-1.14 -12.05,-3.35 -10.87,-4.61 l -25.53,-16.64 c -18.78,-13.17 -39.73,-27.29 -64.32,-48.74 -11.77,-10.18 -26.67,-22 -40.93,-30.42 -13.77,-8.36 -27.83,-15.29 -41.61,-21.62 l -39.94,-18.57 -39.34,-19.59 c -52.4,-26.04 -103.58,-53.24 -151.2,-83.08 -23.78,-14.82 -47.35,-31.66 -72.91,-47.35 -13.03,-7.83 -24.02,-13.68 -32.43,-19.82 -8.61,-6.55 -12.45,-9.12 -15.49,-15.6 l -3.96,-8.4 c -4.79,-10.22 -16.96,-14.61 -27.18,-9.81 -5.22,2.45 -8.94,6.89 -10.67,11.94"
         style="fill:#ff826a;fill-opacity:1;fill-rule:nonzero;stroke:none"
         id="path460" /><path
         d="m 3717.05,7337.9 c -44.65,-40.05 -10.09,-129.04 -60.4,-127.79 -172.16,4.3 -296.64,-81.68 -465.84,-87.16 -18.31,-0.6 -38.19,2.75 -54.16,12.11 -18.08,10.57 -29.16,32.89 -17.56,52.53 4.74,8.02 11.93,14.25 19.11,20.17 52.23,43.11 110.68,78.76 172.41,106.48 41.88,18.81 84.92,34.99 126.57,54.35 29.93,13.92 63.97,25.04 90.75,44.39 44.43,32.1 46.48,51.5 69.11,72.25 19.55,17.92 27.59,30.12 54.59,36.67 57.36,14.04 101.04,-12.21 156.83,-50.16 34.94,-23.66 67.91,-64.64 65.16,-64 -16.03,-30.94 -120.71,-37.68 -156.57,-69.84"
         style="fill:#ffffff;fill-opacity:1;fill-rule:nonzero;stroke:none"
         id="path462" /><path
         d="m 3656.65,7210.11 c -76.74,-1.88 -142.14,-17.35 -185.31,-27.67 -67.52,-16.3 -66.51,-22.65 -146.08,-40.78 -21.8,-4.95 -43.59,-7.99 -65.58,-10.61 45.03,38.84 109.75,83.7 195.53,114.48 155.89,56.16 274.89,64.55 287.1,7.02 4.3,-56.17 -35.35,-41.25 -85.66,-42.44"
         style="fill:#f75f4b;fill-opacity:1;fill-rule:nonzero;stroke:none"
         id="path464" /><path
         d="m 3566.47,7190.76 c -5.45,0.04 -10.05,4.26 -10.46,9.81 -1.35,18.48 -4.62,37.55 -7.79,56 -3.24,18.93 -6.59,38.52 -8.02,58.01 -0.42,5.82 3.94,10.87 9.76,11.3 5.9,0.37 10.89,-3.93 11.32,-9.78 1.35,-18.45 4.62,-37.53 7.77,-55.95 3.24,-18.95 6.6,-38.54 8.04,-58.05 0.42,-5.82 -3.95,-10.88 -9.77,-11.3 l -0.85,-0.04"
         style="fill:#ff826a;fill-opacity:1;fill-rule:nonzero;stroke:none"
         id="path466" /><path
         d="m 3484.7,7173.96 c -4.9,0.03 -9.26,3.46 -10.28,8.44 -3.17,15.5 -7.31,32.6 -11.44,49.69 -4.22,17.38 -8.43,34.79 -11.65,50.56 -1.17,5.7 2.52,11.3 8.23,12.46 5.74,1.25 11.31,-2.5 12.47,-8.24 3.18,-15.52 7.34,-32.66 11.48,-49.8 4.2,-17.36 8.4,-34.71 11.62,-50.41 1.17,-5.72 -2.52,-11.32 -8.24,-12.48 l -2.19,-0.22"
         style="fill:#ff826a;fill-opacity:1;fill-rule:nonzero;stroke:none"
         id="path468" /><path
         d="m 3402.66,7152.15 c -4.9,0.03 -9.26,3.47 -10.28,8.45 -2.99,14.56 -8.53,27.52 -14.4,41.24 -6.05,14.09 -12.29,28.65 -15.69,45.35 -1.17,5.7 2.51,11.3 8.23,12.46 5.7,1.29 11.31,-2.5 12.47,-8.24 2.98,-14.57 8.53,-27.53 14.41,-41.24 6.03,-14.1 12.28,-28.67 15.69,-45.33 1.17,-5.72 -2.52,-11.31 -8.24,-12.48 l -2.19,-0.21"
         style="fill:#ff826a;fill-opacity:1;fill-rule:nonzero;stroke:none"
         id="path470" /><path
         d="m 9046.78,9834.83 c 8.79,-206.95 7.47,-413.84 6.56,-620.75 l -2.52,-620.7 -5.04,-1241.41 -5.04,-1241.41 -7.84,-1241.39 c -0.1,-14.59 -12,-26.35 -26.59,-26.26 -14.59,0.1 -26.34,11.97 -26.25,26.56 l 6.62,1241.41 9.41,1241.38 9.43,1241.38 4.7,620.7 c 1.51,206.89 2.6,413.79 13.8,620.63 0.35,6.28 5.71,11.09 12,10.76 5.88,-0.32 10.49,-5.11 10.76,-10.9"
         style="fill:#3978b6;fill-opacity:1;fill-rule:nonzero;stroke:none"
         id="path472" /><path
         d="m 7746.44,2425.28 c 12.52,44.52 42.79,84.93 79.9,96.4 9.92,3.07 7.56,-16.14 3.16,-20.48 0,0 -82.37,-73.31 41.85,-210.86 77.09,-85.36 137.07,-106.73 178.11,-107.18 24.62,-0.27 48.31,10.03 48.31,10.03 -17.84,-32.66 -48.39,-60.89 -105.87,-64.51 0,0 -101.65,11.86 -180.91,125.32 -79.57,113.92 -64.55,171.28 -64.55,171.28"
         style="fill:#679acb;fill-opacity:1;fill-rule:nonzero;stroke:none"
         id="path474" /><path
         d="m 8453.41,2180.58 c -81,-80.06 -261.79,-31.43 -366.47,17.55 -2.8,1.32 -5.49,2.54 -8.09,3.85 -55.03,26.77 -151.91,73.9 -207.08,160.86 91.69,59.36 151.88,60.11 190.97,48.36 45.69,-13.79 61.94,-44.42 129.47,-58.44 33.6,-7.01 90.43,-18.76 137.38,13.62 26.45,18.28 41.23,44.73 49.29,69.92 34.88,-47.28 52.66,-71.42 56.15,-75.34 36.21,-42.07 53.66,-53.69 58.62,-79.96 9.33,-50.13 -37.22,-97.44 -40.24,-100.42"
         style="fill:#ffffff;fill-opacity:1;fill-rule:nonzero;stroke:none"
         id="path476" /><path
         d="m 8176.46,2683.14 c 9.64,40.13 7.36,189.91 -27.84,193.74 -21.97,3.75 -47.06,-38.41 -62.22,-83.8 -13.8,-41.33 -15.58,-76.19 -13.97,-94.62 l 104.03,-15.32"
         style="fill:#dd4531;fill-opacity:1;fill-rule:nonzero;stroke:none"
         id="path478" /><g
         id="g480"><g
           id="g482"
           clip-path="url(#clipPath486)"><path
             d="m 8378.88,2436.3 c -8.06,-25.19 -22.84,-51.64 -49.29,-69.92 -46.95,-32.38 -103.78,-20.63 -137.38,-13.62 -67.53,14.02 -83.78,44.65 -129.47,58.44 -39.09,11.75 -99.28,11 -190.97,-48.36 -16.88,26.34 -29.83,56.36 -36.63,90.55 -2.83,14.34 -4.84,30.57 -5.64,47.81 -2.62,65.52 13.47,145.04 72.33,191.48 97.8,77.14 269.18,27.87 347.31,-56.62 38.61,-41.69 33.24,-69.1 116.03,-181.25 4.76,-6.54 9.33,-12.67 13.71,-18.51"
             style="fill:url(#linearGradient494);fill-opacity:1;fill-rule:nonzero;stroke:none"
             id="path496" /></g></g><path
         d="m 8507.29,2286.64 c -0.12,-20.26 -16.65,-36.59 -36.91,-36.47 -20.26,0.11 -36.59,16.64 -36.47,36.9 0.11,20.26 16.64,36.59 36.9,36.47 20.26,-0.11 36.59,-16.64 36.48,-36.9"
         style="fill:#7c4c47;fill-opacity:1;fill-rule:nonzero;stroke:none"
         id="path498" /><path
         d="m 8179.66,2450.71 c -0.11,-17.62 -9.63,-31.86 -21.27,-31.79 -11.65,0.06 -21.01,14.41 -20.9,32.04 0.1,17.62 9.63,31.86 21.27,31.79 11.64,-0.06 21,-14.41 20.9,-32.04"
         style="fill:#7c4c47;fill-opacity:1;fill-rule:nonzero;stroke:none"
         id="path500" /><path
         d="m 8279.63,2506.4 c -0.1,-16.99 -8.52,-30.71 -18.81,-30.65 -10.28,0.06 -18.54,13.88 -18.45,30.86 0.1,16.98 8.53,30.7 18.81,30.65 10.29,-0.07 18.55,-13.88 18.45,-30.86"
         style="fill:#7c4c47;fill-opacity:1;fill-rule:nonzero;stroke:none"
         id="path502" /><path
         d="m 7986.98,2656.34 c 2.73,18.87 -29.63,198.09 -81.76,195.17 -34.08,-5.99 -39.93,-80.05 -43.27,-148.18 -1.87,-38.04 3.21,-70.4 9.09,-94.51 0,0 32.31,27.45 58.97,37.19 26.66,9.73 56.97,10.33 56.97,10.33"
         style="fill:#f75f4b;fill-opacity:1;fill-rule:nonzero;stroke:none"
         id="path504" /></g></g></svg>
